<?xml version="1.0" standalone="no"?>
<!DOCTYPE svg PUBLIC "-//W3C//DTD SVG 20010904//EN"
 "http://www.w3.org/TR/2001/REC-SVG-20010904/DTD/svg10.dtd">
<svg version="1.0" xmlns="http://www.w3.org/2000/svg"
 width="1024.000000pt" height="1024.000000pt" viewBox="0 0 1024.000000 1024.000000"
 preserveAspectRatio="xMidYMid meet">

<g transform="translate(0.000000,1024.000000) scale(0.100000,-0.100000)"
fill="#000000" stroke="none">
<path d="M4938 8063 l-48 -4 0 -47 c0 -26 3 -105 7 -175 l6 -128 31 3 31 3 -4
125 c-2 82 0 122 7 115 5 -5 29 -61 53 -122 42 -111 43 -113 75 -113 31 0 33
3 68 93 65 170 61 167 64 31 l3 -122 27 -5 c15 -3 30 -3 34 0 5 2 8 80 8 173
l0 169 -45 7 c-25 3 -51 4 -58 1 -7 -2 -30 -57 -52 -121 -22 -64 -43 -116 -46
-116 -3 0 -25 53 -50 117 -24 64 -49 117 -54 118 -6 1 -31 0 -57 -2z"/>
<path d="M5400 7924 c0 -156 10 -188 72 -220 48 -25 147 -30 186 -10 48 25 59
57 67 197 l7 126 -32 7 c-18 3 -36 6 -41 6 -5 0 -9 -26 -10 -57 0 -32 -4 -91
-8 -132 -8 -88 -24 -106 -86 -96 -71 11 -75 20 -75 172 0 120 -2 133 -17 133
-10 0 -28 3 -40 6 l-23 6 0 -138z"/>
<path d="M4611 8034 c-52 -7 -96 -15 -98 -18 -2 -2 -1 -81 3 -176 l7 -172 26
6 c14 2 79 11 144 18 l117 12 0 30 0 29 -90 -7 c-50 -4 -97 -9 -105 -12 -12
-5 -15 4 -15 44 0 56 -6 53 123 68 52 6 57 8 57 31 l0 25 -72 -6 c-40 -4 -82
-8 -93 -9 -16 -2 -21 5 -23 34 -4 42 -1 43 131 55 76 7 77 7 77 35 0 28 -2 29
-47 28 -27 -1 -90 -7 -142 -15z"/>
<path d="M3079 7727 c-213 -129 -359 -232 -369 -261 -18 -53 -11 -75 9 -29 23
49 54 73 278 213 150 94 181 116 172 125 -2 2 -43 -20 -90 -48z"/>
<path d="M7100 7771 c0 -5 17 -20 38 -32 20 -13 89 -59 152 -102 234 -162 247
-177 237 -263 -5 -47 -59 -137 -176 -294 -31 -41 -66 -88 -78 -105 l-21 -30
26 -2 c16 0 20 2 12 7 -10 6 -10 8 1 12 7 2 21 -4 31 -14 10 -10 23 -16 28
-13 4 3 11 -1 13 -7 4 -10 6 -10 6 0 1 6 11 12 23 12 21 0 21 0 2 -16 -10 -8
-13 -13 -6 -9 7 4 20 1 28 -6 12 -9 13 -9 9 2 -4 10 2 15 16 16 17 2 18 -1 9
-13 -9 -10 -9 -14 -1 -14 6 0 14 7 17 15 4 8 10 12 16 9 5 -3 5 -11 -2 -19 -8
-10 -8 -15 1 -21 8 -4 9 -3 5 4 -4 7 -4 12 1 13 51 6 81 4 76 -4 -3 -5 5 -19
18 -29 13 -11 17 -16 9 -12 -12 6 -13 5 -3 -8 7 -8 11 -17 8 -20 -3 -2 1 -5 8
-5 8 0 14 6 14 13 0 7 -4 11 -9 8 -4 -3 -8 -3 -8 0 0 3 10 10 21 17 15 8 19 8
15 0 -12 -20 4 -49 30 -55 22 -6 25 -11 22 -36 -2 -16 -1 -27 3 -24 23 14 30
-190 9 -274 -7 -30 -16 -49 -22 -46 -6 4 -8 -2 -3 -16 4 -14 3 -20 -3 -16 -5
3 -12 -3 -15 -14 -3 -11 -1 -18 3 -15 4 3 6 -4 3 -15 -3 -11 -9 -20 -13 -20
-14 0 -50 57 -42 65 4 5 1 5 -6 1 -8 -5 -11 -19 -8 -36 3 -23 0 -29 -19 -34
-17 -4 -22 -11 -18 -26 3 -12 0 -20 -6 -20 -7 0 -10 4 -7 8 3 5 -1 9 -9 9 -10
0 -11 -5 -4 -18 6 -11 5 -20 -1 -24 -10 -6 -14 1 -11 20 1 6 -5 2 -12 -7 -11
-14 -16 -15 -27 -5 -10 9 -11 9 -6 0 4 -7 2 -13 -5 -13 -9 0 -9 -3 0 -14 9
-11 7 -15 -8 -19 -11 -2 -24 0 -29 5 -6 6 -12 5 -17 -3 -6 -8 -4 -10 5 -4 9 5
11 4 6 -3 -9 -15 -11 -15 -27 5 -12 15 -12 16 1 8 8 -4 12 -4 7 0 -12 14 -34
14 -34 1 1 -27 -4 -46 -10 -46 -16 0 -37 19 -30 27 5 4 12 2 16 -6 6 -10 10
-9 14 4 5 11 3 14 -5 9 -8 -5 -9 -1 -4 11 6 17 5 18 -11 3 -32 -27 -47 -33
-40 -15 4 11 2 14 -8 10 -8 -3 -13 -9 -10 -13 3 -4 -3 -7 -13 -6 -9 0 -21 7
-25 14 -6 9 -13 9 -28 2 -10 -6 -19 -8 -19 -4 0 3 -7 1 -15 -6 -10 -9 -15 -9
-15 -1 0 6 -14 11 -31 11 -21 0 -28 4 -23 13 5 8 2 8 -9 -2 -15 -12 -17 -11
-17 2 0 10 -7 15 -20 12 -12 -2 -20 2 -20 11 0 10 11 13 38 12 50 -1 98 10
141 34 47 26 97 69 94 80 -2 4 1 8 6 8 4 0 21 28 37 63 22 48 29 78 30 135 1
39 -1 72 -5 72 -4 0 -7 10 -8 22 -5 56 -62 150 -121 196 l-39 31 -79 -112
c-43 -62 -111 -151 -150 -198 -100 -119 -239 -221 -281 -205 -8 3 -12 2 -9 -2
2 -4 -34 -7 -82 -7 -72 1 -102 7 -172 34 -47 18 -119 44 -160 59 -68 24 -72
27 -45 32 60 11 39 65 -43 107 -34 18 -165 58 -257 78 -44 10 -109 26 -144 36
-83 25 -87 24 -21 -8 187 -88 240 -117 261 -141 13 -14 17 -21 9 -15 -10 7
-21 8 -30 3 -8 -5 -17 -7 -22 -4 -4 3 -25 6 -48 9 -28 2 -38 0 -33 -8 9 -14 9
-58 0 -81 -4 -10 -2 -26 5 -35 11 -14 11 -14 -3 -3 -9 7 -19 35 -23 64 -14
102 -85 196 -163 217 -76 20 -242 41 -420 53 -210 13 -446 2 -651 -32 -68 -11
-129 -17 -135 -14 -7 4 -9 4 -5 -1 4 -4 -7 -17 -25 -29 -50 -34 -88 -99 -101
-174 -13 -76 -18 -87 -49 -104 -19 -10 -20 -9 -10 4 10 11 10 17 0 27 -10 11
-8 11 11 2 17 -9 22 -9 22 1 0 8 -14 14 -33 15 -19 2 -39 11 -49 24 -21 25
-24 43 -5 33 6 -4 8 -3 4 1 -12 14 -38 15 -30 2 4 -7 -1 -6 -10 2 -22 18 -22
24 8 59 13 16 21 32 17 36 -4 4 -2 7 3 5 6 -1 48 17 95 40 47 23 75 39 64 36
-12 -3 -38 -8 -58 -10 -48 -6 -216 -52 -281 -76 -56 -21 -104 -59 -55 -44 47
15 55 16 33 4 -13 -7 -23 -16 -23 -21 0 -5 -5 -6 -12 -2 -6 4 -8 3 -4 -4 8
-13 75 -36 83 -29 12 13 -10 27 -34 21 -19 -5 -24 -4 -19 5 11 18 73 11 72 -8
-1 -9 6 -15 17 -15 9 1 17 -2 17 -6 0 -14 -25 -28 -107 -60 -46 -17 -83 -35
-83 -40 0 -5 -7 -7 -15 -3 -10 3 -15 1 -13 -7 2 -7 -3 -15 -11 -18 -8 -3 -11
0 -7 7 5 7 1 9 -8 5 -9 -3 -13 -10 -10 -15 3 -5 -1 -12 -9 -15 -12 -4 -13 -13
-7 -34 14 -49 22 -56 55 -49 24 5 26 7 7 8 -16 1 -21 5 -16 14 5 8 2 8 -9 -2
-11 -8 -17 -9 -17 -3 0 27 79 39 88 14 2 -7 8 -12 13 -12 6 0 8 4 5 9 -4 5 3
7 14 4 11 -3 41 1 67 10 147 46 121 21 -30 -30 -55 -18 -109 -33 -121 -33 -11
0 -28 -5 -36 -11 -12 -8 -10 -9 7 -4 15 4 32 -1 50 -14 l28 -21 73 20 c40 11
121 41 180 66 59 25 115 46 124 47 10 1 18 6 18 11 0 26 16 -25 100 -319 104
-364 174 -583 267 -834 76 -208 106 -270 151 -319 l33 -37 -24 35 c-31 45 -87
145 -87 156 0 4 13 -5 29 -20 41 -40 81 -45 308 -46 l201 0 44 33 c51 38 80
94 150 287 72 198 137 412 233 762 47 171 87 314 90 316 3 3 4 -12 2 -34 -1
-21 -4 -41 -8 -44 -3 -3 3 -13 13 -22 10 -10 18 -13 18 -6 0 6 9 3 20 -7 11
-10 20 -24 20 -31 0 -7 19 -22 43 -34 40 -19 37 -20 -33 -5 -14 3 -18 2 -10
-1 37 -17 59 -53 56 -93 -2 -27 1 -39 8 -35 6 3 4 0 -4 -8 -18 -15 -24 -38
-11 -38 5 0 7 -9 4 -20 -3 -11 -9 -20 -14 -20 -5 0 -8 -3 -8 -7 1 -5 0 -10 -1
-13 -1 -3 -3 -13 -5 -22 -3 -15 0 -16 18 -7 22 10 22 10 0 -9 -12 -11 -19 -22
-16 -26 4 -3 2 -6 -3 -6 -8 0 -11 -23 -15 -102 0 -9 -7 -19 -15 -22 -9 -3 -13
-10 -10 -15 4 -5 -1 -16 -9 -25 -9 -9 -11 -17 -5 -21 5 -3 10 -11 10 -16 0 -6
-4 -7 -10 -4 -5 3 -10 1 -10 -5 0 -6 -6 -18 -14 -26 -9 -8 -13 -25 -10 -40 3
-14 1 -23 -5 -20 -5 3 -14 -1 -21 -9 -11 -13 -10 -14 3 -9 15 5 15 2 6 -25 -6
-17 -13 -31 -16 -31 -3 0 -3 7 0 15 4 8 1 17 -5 21 -6 4 -9 3 -6 -2 3 -5 1
-20 -5 -34 -5 -14 -11 -29 -13 -35 -1 -5 -5 -19 -9 -30 -7 -19 -7 -19 7 -1 12
16 16 16 23 5 5 -8 5 -11 0 -7 -11 11 -34 -22 -35 -49 0 -13 -5 -23 -11 -23
-6 0 -9 -9 -6 -20 3 -12 1 -18 -5 -14 -7 5 -9 -2 -6 -19 3 -16 1 -24 -5 -20
-6 4 -8 -4 -4 -19 5 -17 2 -30 -7 -37 -17 -15 -28 -1 -15 19 5 8 9 25 9 38 0
13 7 36 15 52 9 18 11 31 5 35 -6 3 -11 1 -11 -4 -2 -12 -2 -12 -13 -52 -4
-14 -9 -32 -10 -40 -2 -8 -6 -21 -9 -29 -3 -8 -8 -28 -11 -45 -7 -41 -62 -195
-75 -208 -7 -7 -7 -16 0 -30 7 -12 7 -17 1 -13 -5 3 -13 -2 -16 -11 -4 -9 -1
-20 6 -25 11 -6 10 -8 0 -8 -7 0 -10 -4 -7 -10 3 -5 1 -10 -4 -10 -6 0 -11 -7
-11 -15 0 -9 -9 -15 -22 -16 -22 0 -22 -1 -3 -9 18 -8 18 -9 2 -9 -10 -1 -16
-5 -12 -10 3 -5 1 -12 -5 -16 -6 -4 -8 -10 -5 -15 3 -5 1 -11 -4 -15 -5 -3 -8
-15 -6 -27 3 -12 -1 -25 -7 -29 -6 -4 -13 -20 -14 -36 -1 -15 -7 -40 -13 -55
-6 -16 -8 -28 -5 -28 2 0 -3 -14 -11 -31 -9 -17 -14 -37 -11 -45 3 -8 -1 -17
-10 -21 -8 -3 -13 -11 -10 -18 2 -7 2 -16 -2 -20 -4 -4 -8 -11 -8 -16 -1 -5
-2 -10 -3 -11 -2 -2 -4 -14 -7 -27 -2 -13 -13 -60 -24 -105 -11 -44 -22 -90
-24 -101 -38 -194 -51 -271 -72 -440 -13 -111 -30 -322 -36 -473 l-12 -274
-106 7 c-58 4 -115 7 -128 6 -21 -1 -132 -46 -132 -54 0 -2 26 0 57 4 32 4 59
6 62 3 2 -2 -1 -4 -7 -4 -7 0 -12 -9 -12 -20 0 -11 -5 -20 -11 -20 -5 0 -7 4
-4 10 3 6 1 10 -5 10 -6 0 -13 -7 -16 -15 -9 -22 -23 -18 -17 5 3 12 0 20 -6
20 -7 0 -9 -5 -5 -12 5 -7 2 -9 -8 -6 -8 4 -15 0 -15 -8 0 -7 5 -10 10 -7 6 3
7 2 4 -4 -3 -5 -34 -8 -69 -7 -35 2 -66 3 -70 4 -16 0 -49 84 -78 201 -39 154
-93 328 -124 394 -13 27 -38 84 -56 125 -18 41 -48 106 -67 144 -19 37 -32 75
-29 83 3 8 2 12 -3 9 -11 -7 -23 22 -14 36 3 7 1 8 -5 4 -11 -6 -16 6 -13 27
0 4 -3 7 -9 7 -26 0 -104 223 -94 268 4 21 3 24 -5 12 -6 -9 -11 -10 -11 -3 0
6 -3 20 -6 30 -5 15 -4 15 5 3 15 -21 14 -1 -4 51 -8 24 -19 71 -24 104 -5 33
-32 155 -60 272 -27 116 -69 300 -91 410 -46 222 -121 543 -209 893 l-59 235
-31 -3 c-27 -3 -31 0 -31 20 0 36 -15 50 -51 53 -19 1 -54 5 -79 8 -25 3 -37
4 -27 1 9 -3 17 -12 17 -19 0 -8 4 -17 10 -20 6 -4 7 1 3 11 -5 14 -3 16 11
11 10 -4 20 -7 22 -7 2 0 4 -8 4 -18 0 -10 16 -32 35 -51 19 -18 35 -37 35
-43 0 -6 -9 0 -21 13 -11 13 -19 20 -16 14 2 -5 12 -26 20 -45 33 -72 167
-457 167 -480 0 -6 -6 -8 -12 -4 -7 4 -5 -2 4 -13 10 -11 18 -24 18 -29 0 -5
-4 -3 -9 5 -6 10 -11 5 -17 -20 -4 -19 -7 -43 -5 -54 1 -14 -1 -16 -7 -8 -10
15 -7 -81 4 -98 4 -7 3 -9 -3 -6 -13 8 -42 -33 -36 -51 3 -6 10 -9 15 -6 7 4
8 2 4 -5 -4 -6 -12 -8 -18 -5 -7 5 -9 -6 -5 -32 l6 -39 -11 35 c-5 19 -12 42
-15 50 -2 8 -4 17 -4 20 0 3 -8 14 -17 24 -13 15 -13 17 -2 11 12 -7 13 -6 3
6 -7 9 -11 54 -11 119 0 58 -1 110 -1 117 -1 7 -12 23 -24 36 -18 17 -25 38
-30 88 -6 58 -13 104 -17 104 -2 0 -6 22 -15 79 -6 43 -33 107 -48 117 -6 4
-7 17 -4 29 4 14 2 20 -6 17 -8 -3 -12 8 -12 32 0 22 -5 35 -11 34 -7 -1 -10
6 -7 17 3 11 0 20 -6 20 -6 0 -11 9 -11 21 0 11 -4 17 -10 14 -5 -3 -10 -1
-10 4 0 6 6 11 13 12 6 0 -15 9 -49 19 -128 41 -253 150 -447 388 -56 70 -106
126 -110 125 -3 -1 -20 2 -35 7 -46 13 -54 0 -59 -94 l-6 -87 -36 3 c-20 2
-35 8 -35 13 1 6 4 24 8 40 5 24 4 26 -4 13 -6 -10 -12 -53 -13 -95 l-2 -78
-57 3 c-58 4 -58 4 -59 -25 -2 -55 17 -133 33 -133 5 0 6 -5 3 -11 -4 -6 15
-32 43 -59 75 -72 176 -100 267 -74 74 21 140 88 168 169 l13 37 27 -67 c20
-51 24 -72 16 -86 -5 -11 -14 -19 -20 -19 -6 0 -7 -6 -3 -12 4 -7 4 -10 -1 -6
-4 4 -15 2 -23 -5 -11 -8 -14 -8 -9 0 4 6 3 14 -2 17 -5 4 -8 -2 -6 -11 1 -10
-2 -25 -8 -33 -9 -12 -9 -13 3 -2 19 16 27 15 34 -4 5 -13 3 -14 -6 -6 -17 14
-53 -11 -42 -30 4 -7 4 -10 -1 -6 -4 4 -15 2 -23 -5 -9 -6 -13 -7 -9 -1 3 6 0
11 -8 11 -7 0 -12 -8 -10 -18 2 -10 -3 -20 -12 -23 -11 -4 -13 -2 -10 9 4 8 1
17 -6 21 -7 4 -9 4 -5 -1 4 -4 0 -14 -8 -22 -8 -8 -12 -18 -9 -23 3 -4 -2 -11
-11 -14 -8 -3 -13 -2 -10 2 3 4 -5 14 -17 21 -12 8 -19 10 -15 6 14 -15 -11
-43 -33 -38 -17 5 -20 3 -14 -8 5 -8 -2 -5 -15 6 -13 11 -20 14 -16 8 4 -8 1
-13 -9 -13 -9 0 -13 5 -10 10 10 16 -1 11 -16 -7 -10 -11 -10 -14 -1 -9 6 4
12 3 12 -2 0 -18 -40 -21 -50 -4 -9 16 -9 16 -10 1 0 -9 -7 -23 -17 -30 -15
-13 -15 -12 -3 11 7 14 9 22 5 17 -5 -4 -16 0 -26 9 -15 14 -17 14 -15 -2 0
-9 -7 -18 -17 -20 -15 -2 -16 0 -5 14 7 9 8 14 4 10 -5 -4 -15 -3 -22 3 -9 8
-11 6 -7 -9 3 -12 -1 -22 -11 -25 -9 -4 -16 -1 -16 5 0 6 -10 3 -22 -8 -13
-10 -17 -12 -10 -4 16 19 16 35 -1 21 -8 -6 -16 -8 -20 -5 -3 3 -22 7 -44 9
-49 4 -47 3 -34 18 18 22 1 27 -28 9 -21 -13 -24 -14 -14 -1 10 12 8 17 -8 27
-11 7 -17 16 -14 21 2 5 -3 8 -11 7 -15 -1 -23 14 -26 50 -1 6 -12 8 -26 6
-20 -4 -23 -2 -16 9 12 20 14 40 3 33 -5 -3 -9 0 -9 5 0 21 -2 26 -13 40 -6 7
-12 18 -13 25 -2 12 -10 48 -20 94 -4 15 -6 34 -7 42 0 8 -5 21 -10 29 -15 18
-17 34 -17 117 -1 80 35 208 54 197 6 -3 8 -3 4 1 -4 5 3 25 16 45 12 20 33
57 46 83 13 27 45 72 71 102 27 29 45 57 41 61 -4 5 -2 5 5 1 6 -3 15 -1 19 5
4 7 16 -12 30 -45 12 -31 29 -63 37 -71 18 -18 83 -25 80 -9 -1 8 11 7 39 -3
22 -8 47 -13 54 -11 15 4 -113 181 -158 219 -26 22 -41 26 -107 28 -48 1 -92
-4 -119 -13 -70 -25 -152 -86 -197 -147 -24 -32 -46 -55 -50 -51 -5 4 -5 2 -2
-4 4 -7 -5 -37 -18 -67 -14 -31 -38 -100 -52 -154 -23 -86 -26 -118 -26 -258
-1 -147 2 -169 30 -275 28 -108 69 -204 115 -275 l20 -30 -22 25 c-34 38 -86
147 -115 241 -14 46 -38 120 -53 164 -24 72 -27 94 -27 232 l0 151 -34 4 c-49
6 -62 -21 -67 -136 -5 -101 12 -210 46 -299 11 -27 16 -47 13 -43 -3 3 -14 -3
-23 -14 -17 -20 -188 -92 -225 -95 -24 -2 -95 -33 -95 -41 0 -13 71 9 200 61
74 30 135 55 136 55 1 0 8 -33 14 -72 33 -194 88 -304 223 -445 55 -56 102
-101 105 -100 9 2 49 -26 51 -35 0 -5 3 -8 6 -8 11 1 62 -30 74 -44 7 -8 20
-12 28 -9 11 4 14 2 9 -5 -4 -8 0 -12 11 -12 14 1 12 6 -12 25 -16 14 -35 25
-42 25 -7 0 -22 10 -34 23 -12 12 -19 17 -16 11 3 -6 0 -11 -8 -11 -10 0 -12
4 -5 12 5 7 6 15 2 19 -4 5 31 -10 78 -32 159 -74 184 -84 188 -73 3 8 9 8 23
0 11 -5 24 -7 29 -4 5 3 12 0 16 -6 5 -8 3 -9 -6 -4 -9 5 -11 4 -6 -4 4 -6 13
-11 19 -10 7 1 21 -1 32 -5 44 -17 72 -25 105 -30 37 -5 26 2 -34 24 -16 6
-26 13 -23 16 3 3 14 1 24 -4 10 -6 101 -35 202 -66 102 -31 194 -64 204 -74
15 -12 18 -13 12 -2 -11 19 36 -31 52 -56 7 -11 20 -34 29 -52 10 -19 80 -98
157 -175 77 -78 126 -131 111 -117 l-29 25 24 -27 c13 -15 26 -27 30 -26 14 3
67 -16 79 -29 8 -7 18 -10 24 -7 7 4 8 2 4 -4 -5 -8 2 -12 18 -12 27 0 30 -7
20 -34 -5 -12 -12 -11 -47 9 -23 13 -41 27 -40 32 1 4 -14 8 -32 8 -18 0 -32
-3 -30 -6 4 -6 -110 -59 -126 -59 -5 0 -9 -5 -9 -11 0 -6 -6 -9 -14 -6 -8 3
-16 2 -18 -2 -2 -5 -50 -20 -108 -35 -58 -15 -187 -50 -288 -78 -117 -31 -193
-48 -210 -44 l-27 6 28 -16 c20 -11 41 -14 70 -9 87 14 585 155 650 184 38 17
79 31 92 31 25 0 78 -37 71 -49 -3 -4 13 -25 34 -46 22 -22 40 -35 40 -30 0 4
9 0 20 -10 11 -10 17 -22 14 -27 -3 -4 -1 -7 5 -6 6 2 29 -15 53 -37 23 -22
36 -31 28 -20 -8 11 11 -3 43 -31 32 -28 71 -69 86 -90 26 -35 101 -210 101
-234 0 -5 -12 -10 -27 -10 -40 -1 -63 -14 -216 -119 -107 -73 -135 -97 -126
-107 8 -10 25 -2 82 40 115 84 196 137 228 148 34 12 77 4 76 -14 -1 -32 4
-49 12 -43 11 6 26 -33 17 -42 -3 -4 -6 2 -6 12 0 10 -2 16 -5 13 -4 -3 -3
-18 1 -33 4 -16 9 -22 14 -15 4 6 15 -19 25 -55 9 -36 16 -68 14 -69 -21 -20
-129 -94 -123 -84 4 7 -8 -2 -29 -21 -33 -32 -40 -51 -16 -51 5 0 32 11 61 25
28 14 54 25 57 25 12 0 -66 -51 -86 -56 -13 -4 -20 -11 -16 -17 3 -6 1 -7 -5
-3 -7 4 -20 2 -29 -4 -17 -11 -17 -11 0 -6 9 3 17 1 17 -4 0 -15 -38 -12 -73
7 -18 9 -66 42 -107 73 -316 239 -303 230 -550 360 -169 90 -460 267 -645 395
-87 60 -210 135 -222 135 -11 0 187 -148 341 -254 280 -193 555 -371 721 -466
88 -50 196 -117 240 -149 44 -31 98 -69 120 -83 22 -14 67 -49 99 -77 33 -28
62 -49 64 -46 3 2 14 0 25 -6 12 -7 17 -7 13 -1 -3 5 1 13 10 16 8 3 12 2 9
-4 -3 -6 1 -7 9 -4 9 3 13 10 10 15 -3 5 1 6 9 3 8 -3 18 -1 21 5 14 22 145
101 169 101 22 0 29 -10 62 -87 93 -220 198 -526 245 -713 29 -113 52 -293 46
-355 -4 -38 -3 -44 4 -25 7 19 8 11 4 -30 -2 -30 2 -127 10 -215 20 -215 27
-352 16 -300 -4 22 -15 65 -23 95 -9 30 -26 117 -38 192 -12 75 -25 135 -29
133 -3 -2 -5 10 -3 28 3 27 2 29 -7 12 -8 -16 -9 -10 -6 25 3 25 3 39 0 32 -3
-6 -9 -10 -13 -7 -14 8 1 -90 16 -107 8 -9 10 -18 5 -22 -5 -3 -13 4 -16 17
-7 21 -7 22 -17 2 -9 -19 -9 -19 -5 3 2 12 0 22 -5 22 -6 0 -5 8 1 19 7 15 7
22 -2 27 -7 4 -10 4 -6 -1 4 -4 3 -15 -1 -24 -6 -10 0 -59 15 -131 52 -251
116 -738 114 -863 -1 -34 2 -79 6 -99 6 -37 7 -38 52 -38 25 0 43 -3 39 -6 -3
-3 -30 -6 -59 -6 -52 1 -53 0 -26 -14 26 -14 94 -22 101 -13 2 2 1 110 -3 239
-3 129 -6 327 -5 440 0 113 -3 187 -7 165 -5 -32 -5 -30 -2 10 9 86 12 354 4
300 l-7 -50 -1 58 c-1 32 1 56 6 54 4 -3 6 49 4 115 -4 141 2 155 74 180 62
22 164 35 164 20 0 -5 -8 -9 -17 -8 -18 1 -22 -56 -32 -456 -1 -51 -3 -56 -21
-51 -19 5 -20 14 -20 242 0 130 -4 242 -9 249 -6 11 -16 10 -49 -4 -23 -9 -42
-19 -42 -23 -2 -21 3 -1448 5 -1501 3 -105 4 -108 36 -145 51 -58 174 -82 262
-51 44 16 48 12 7 -9 -16 -8 -55 -16 -87 -16 -32 -1 -50 -3 -40 -6 9 -2 17 -8
17 -13 0 -5 -8 -11 -17 -13 -17 -4 -17 -5 0 -6 10 0 16 -5 12 -10 -3 -5 5 -17
17 -25 20 -14 18 -21 -5 -17 -5 1 -6 -3 -2 -9 3 -6 10 -8 15 -5 19 12 29 -21
15 -49 -18 -35 -19 -42 -2 -28 8 7 18 7 27 2 11 -7 12 -10 2 -10 -7 0 -10 -4
-7 -10 3 -5 0 -7 -9 -4 -11 4 -13 0 -9 -17 4 -13 8 -18 11 -11 3 9 8 8 19 -3
8 -8 12 -21 10 -28 -4 -9 -6 -9 -6 1 -1 7 -6 10 -11 7 -6 -4 -7 -12 -3 -18 4
-7 8 -19 10 -27 1 -8 6 -16 11 -18 6 -2 8 -12 5 -22 -3 -11 -1 -20 5 -20 6 0
8 -13 5 -32 -4 -30 -4 -31 14 -17 17 13 17 13 4 -4 -15 -18 -15 -18 -29 0 -14
17 -14 16 -8 -7 3 -14 6 -29 6 -34 0 -4 10 -6 23 -3 21 6 21 6 3 -8 -22 -16
-37 -19 -35 -7 1 4 1 14 0 22 -1 13 -2 13 -11 0 -11 -18 15 -51 35 -44 7 3 16
0 21 -7 4 -7 3 -10 -3 -6 -13 8 -57 -38 -49 -52 4 -5 -2 -14 -11 -20 -17 -10
-17 -10 0 -11 9 0 17 4 17 9 0 5 6 11 13 14 8 3 13 -6 14 -25 0 -17 -2 -26 -6
-21 -8 11 -27 11 -38 -1 -4 -5 -3 -6 3 -3 7 4 17 0 24 -8 10 -12 10 -15 -1
-15 -8 0 -6 -5 5 -13 18 -13 18 -14 0 -14 -11 0 -24 4 -30 9 -8 5 -14 3 -17
-6 -4 -10 -1 -13 9 -9 7 3 14 1 14 -5 0 -6 3 -18 7 -28 5 -12 3 -15 -6 -9 -10
6 -11 3 -1 -14 11 -22 30 -20 30 2 0 9 -3 8 -8 -1 -6 -8 -9 -1 -9 20 0 18 2
27 5 20 2 -6 7 -10 11 -8 4 3 6 -7 6 -22 -1 -15 3 -32 8 -39 5 -7 6 -16 3 -22
-3 -5 1 -11 9 -15 8 -3 15 -11 15 -18 0 -10 -2 -10 -9 1 -10 16 -31 6 -31 -15
0 -8 4 -13 9 -10 10 7 9 -20 -1 -30 -4 -3 -4 -12 -2 -19 3 -7 -4 -23 -16 -35
-21 -21 -19 -40 3 -40 7 0 6 4 -3 10 -8 5 -10 10 -4 10 6 0 18 -8 25 -17 12
-14 12 -16 0 -8 -11 6 -13 2 -7 -21 l6 -29 -15 25 -14 25 -2 -40 c-3 -55 -3
-58 -13 -74 -6 -10 -5 -12 2 -7 8 4 12 0 12 -11 0 -15 2 -16 10 -3 6 9 10 10
10 3 0 -6 -4 -15 -10 -18 -15 -9 -12 -27 3 -19 6 4 3 -2 -7 -14 l-19 -22 851
0 c802 0 851 1 855 17 2 10 -4 27 -12 37 -9 11 -10 16 -3 12 6 -4 13 -2 13 3
1 6 2 15 3 21 0 5 10 16 21 25 11 9 15 14 9 11 -7 -3 -14 0 -17 8 -8 20 3 27
22 16 13 -6 17 -4 17 10 0 10 -4 16 -8 14 -4 -3 -5 2 -2 10 3 8 14 18 25 21
18 6 22 36 6 51 -9 9 20 35 42 37 11 0 18 4 16 7 -2 4 -6 18 -9 33 -4 22 -1
27 16 27 12 0 18 3 15 7 -4 3 0 14 8 23 13 14 13 17 0 17 -8 0 -11 -5 -8 -11
3 -6 0 -5 -7 1 -16 15 -23 46 -9 37 5 -3 7 -11 3 -17 -3 -7 1 -4 9 5 8 10 17
16 20 13 4 -3 5 -2 2 2 -3 3 1 13 8 21 8 11 8 14 0 9 -6 -4 -14 -3 -18 3 -9
14 18 12 34 -3 11 -9 13 -9 7 1 -4 7 -2 12 6 12 9 0 9 3 -2 10 -11 7 -7 10 18
10 30 0 31 2 20 20 -7 11 -21 23 -30 26 -10 3 -18 10 -18 15 0 6 7 6 18 1 9
-4 35 -5 57 -2 l40 5 -53 12 c-30 7 -63 13 -75 13 -49 0 -50 18 -1 29 89 20
189 50 169 50 -11 0 -78 -11 -150 -24 -113 -21 -131 -23 -141 -10 -6 8 -14 12
-17 8 -4 -3 -7 1 -7 10 0 9 -7 17 -15 17 -9 0 -12 6 -9 15 4 8 1 16 -5 16 -26
3 -30 4 -38 13 -5 5 -3 6 5 2 6 -4 12 -2 12 3 0 6 -6 11 -14 11 -7 0 -21 10
-30 22 -9 13 -14 17 -10 9 5 -9 3 -12 -5 -7 -9 6 -9 11 -1 21 10 12 8 13 -10
10 -19 -4 -20 -2 -9 13 7 9 9 14 5 10 -5 -4 -16 -2 -24 5 -13 10 -15 9 -8 -3
4 -8 0 -6 -8 4 -9 11 -16 29 -17 40 0 12 -3 15 -6 9 -2 -7 -9 -13 -14 -13 -4
0 -6 7 -3 15 5 13 -5 20 -28 16 -3 0 -3 13 2 29 5 18 5 28 0 25 -12 -7 -50 31
-42 41 4 4 1 4 -5 0 -7 -4 -14 -2 -14 3 -1 6 -2 15 -3 21 -2 15 -26 36 -26 22
0 -7 4 -12 9 -12 11 0 8 -30 -4 -33 -11 -3 -16 51 -4 59 14 8 0 24 -16 17 -9
-3 -21 0 -29 6 -7 6 -17 7 -21 3 -5 -4 -5 -1 -1 6 4 7 10 24 12 39 4 22 3 24
-9 15 -12 -10 -13 -8 -9 14 3 18 1 25 -6 20 -6 -3 -13 3 -17 14 -4 11 -11 18
-16 14 -5 -3 -8 0 -7 8 2 7 -3 12 -10 10 -8 -1 -11 2 -7 7 3 6 12 8 19 5 8 -3
17 -1 21 5 3 6 0 9 -7 6 -8 -3 -18 4 -24 17 -6 13 -9 17 -7 11 1 -7 -2 -13 -7
-13 -6 0 -10 9 -10 19 0 11 -4 22 -9 25 -5 3 -7 16 -3 28 3 13 1 19 -5 15 -6
-4 -14 0 -17 9 -4 10 -2 13 7 8 6 -4 3 3 -8 15 -11 13 -19 26 -18 30 4 10 -8
43 -14 38 -2 -3 0 -14 6 -24 8 -15 7 -20 -4 -20 -8 0 -12 4 -9 8 2 4 0 10 -4
13 -5 3 -8 17 -7 31 2 14 -1 23 -6 20 -5 -4 -17 -1 -26 4 -14 8 -15 11 -3 11
11 1 10 5 -6 19 -16 13 -19 22 -12 34 7 13 5 15 -7 11 -11 -4 -15 0 -15 16 0
17 -5 21 -18 18 -12 -3 -19 0 -19 9 0 8 6 12 14 9 11 -4 11 -1 3 15 -6 11 -16
17 -22 13 -7 -5 -9 2 -6 20 3 14 1 29 -4 32 -4 3 -7 2 -6 -3 2 -4 0 -9 -5 -10
-17 -6 -27 -2 -27 13 0 9 5 12 13 8 8 -5 8 -3 -2 9 -7 9 -17 15 -21 12 -5 -3
-11 -1 -15 5 -3 5 -2 10 4 10 7 0 7 10 0 29 -7 20 -15 28 -25 24 -9 -3 -14 2
-14 16 0 12 -5 21 -11 21 -6 0 -1 9 12 19 21 17 22 20 7 26 -11 4 -20 23 -24
53 -12 78 -11 94 7 167 10 39 21 87 24 108 3 21 9 35 14 33 4 -3 5 9 3 26 -3
21 -1 29 7 24 6 -4 11 -1 12 6 0 7 2 20 3 28 2 8 6 44 10 80 9 82 35 190 51
210 11 15 35 87 35 107 0 6 -13 16 -30 23 -25 10 -27 14 -15 26 19 19 44 18
89 -6 22 -10 43 -17 48 -14 5 3 7 1 6 -4 -2 -6 17 -25 42 -42 40 -29 38 -25
-24 38 -75 77 -155 127 -188 119 -16 -5 -18 -3 -9 6 13 13 15 31 2 22 -5 -3
-13 0 -17 6 -4 7 -3 9 4 5 6 -3 13 -2 17 4 4 6 12 7 18 4 7 -4 9 -3 4 1 -4 5
2 19 14 31 13 14 17 24 10 29 -14 8 -33 -3 -26 -15 3 -5 0 -12 -6 -16 -8 -4
-9 -3 -5 4 11 18 -10 14 -25 -5 -12 -14 -12 -16 0 -8 9 5 12 4 7 -3 -4 -6 -13
-9 -20 -6 -7 3 -19 -2 -26 -11 -11 -13 -10 -15 6 -9 15 5 16 4 4 -4 -8 -6 -18
-8 -23 -5 -5 3 -20 -6 -35 -18 -32 -29 65 86 102 120 14 13 23 27 21 31 -2 4
24 31 58 59 34 28 78 65 97 81 19 16 46 39 60 50 14 11 -20 -8 -74 -42 -117
-74 -202 -156 -285 -278 -34 -48 -61 -91 -61 -93 0 -5 18 3 105 46 17 9 18 8
8 -4 -6 -8 -39 -27 -72 -44 l-62 -30 -68 -135 c-121 -239 -212 -484 -386
-1040 -31 -99 -56 -137 -101 -156 -43 -18 -69 -18 -29 0 30 14 29 15 -15 29
-8 3 0 6 18 6 19 1 32 -4 32 -11 0 -8 4 -8 14 2 12 14 26 96 72 425 9 66 32
215 51 330 18 116 36 224 38 240 2 17 8 44 13 61 6 20 6 37 0 49 -10 17 -2 92
24 220 5 28 10 62 10 77 1 15 4 26 7 24 3 -2 6 8 7 22 1 36 70 222 133 359 50
111 231 434 256 459 7 8 17 14 22 14 15 0 83 61 78 70 -3 4 3 14 13 21 15 13
16 12 3 -3 -7 -10 -9 -18 -4 -18 11 0 40 29 44 45 2 6 8 9 14 8 6 -2 24 9 41
25 17 15 23 22 15 16 -26 -18 -41 -26 -41 -21 0 13 102 77 112 71 6 -4 8 -3 5
3 -4 6 4 18 18 27 29 19 39 20 29 4 -4 -8 -3 -10 2 -5 5 5 9 13 9 19 0 6 41
34 90 62 50 28 111 67 135 87 55 43 174 130 202 145 11 7 34 25 51 42 53 50
339 239 323 214 -11 -19 6 -14 29 8 12 12 45 35 73 53 89 56 196 129 212 144
8 7 36 27 61 44 26 16 75 57 110 90 51 49 55 54 19 27 -25 -19 -85 -58 -135
-88 -98 -59 -250 -164 -260 -180 -3 -6 -11 -10 -16 -10 -12 0 19 61 40 77 9 7
46 28 84 48 37 20 67 38 67 39 0 2 -26 -7 -57 -20 -32 -13 -78 -26 -103 -30
l-45 -6 0 -51 c0 -51 0 -52 -55 -88 -143 -97 -528 -330 -641 -389 -74 -39
-165 -97 -218 -139 -56 -45 -95 -70 -103 -65 -7 4 -10 3 -5 -1 4 -5 0 -17 -10
-27 -18 -20 -38 -25 -27 -5 6 8 3 8 -9 -1 -9 -8 -15 -19 -14 -24 2 -12 -98
-98 -115 -98 -6 0 7 13 30 29 22 16 44 36 48 43 5 7 -9 -2 -31 -20 -43 -35
-58 -40 -49 -17 4 10 0 15 -12 15 -13 0 -8 6 14 17 28 14 171 159 179 181 2 4
-17 20 -42 35 -25 16 -48 34 -52 39 -7 13 82 -46 114 -74 21 -20 21 -20 28 1
8 25 292 244 305 236 6 -4 9 -1 8 7 -2 7 5 12 14 12 10 -1 16 3 15 8 -1 6 4
13 12 16 9 3 11 0 6 -8 -5 -9 -4 -11 4 -6 6 4 9 11 6 16 -6 10 43 43 55 35 5
-3 12 0 16 6 5 8 3 9 -7 4 -12 -8 -12 -6 0 8 16 20 36 23 25 5 -4 -8 -3 -10 2
-5 5 5 9 14 9 20 0 5 6 12 14 15 9 3 11 0 6 -9 -5 -8 -4 -11 1 -6 5 5 9 14 9
20 0 5 6 12 14 15 9 3 11 0 6 -8 -5 -9 -4 -11 4 -6 6 4 9 11 6 16 -5 8 63 54
219 147 51 30 83 54 75 57 -8 3 -42 12 -77 22 -34 9 -61 18 -59 21 2 2 40 -6
85 -18 44 -12 86 -19 94 -15 7 4 24 14 38 22 24 15 23 15 -25 11 -28 -3 -68 0
-90 7 -39 13 -38 13 28 8 38 -3 78 0 90 6 12 5 36 15 52 21 33 13 92 57 63 47
-25 -8 -22 1 3 15 15 8 19 8 15 0 -17 -27 26 -3 186 106 153 103 328 236 328
250 0 2 -33 -23 -73 -56 -68 -55 -181 -136 -217 -155 -8 -4 1 5 20 20 370 302
530 482 682 772 30 56 58 99 61 95 4 -3 7 2 7 13 0 10 9 42 19 70 36 93 60
208 65 309 6 108 4 105 -21 -25 -22 -117 -85 -298 -140 -400 -118 -220 -342
-496 -566 -701 -104 -95 -283 -240 -327 -264 -24 -13 -10 -1 92 78 111 87 152
123 301 267 116 112 243 257 234 267 -4 3 0 18 8 33 16 31 12 52 -28 141 -22
48 -26 72 -26 152 0 81 4 105 30 172 34 89 94 313 86 322 -4 3 -9 -8 -12 -23
-11 -51 -46 -166 -49 -163 -2 2 8 50 22 106 l25 102 36 -16 c185 -80 291 -110
291 -83 0 6 -8 13 -17 16 -10 3 -25 8 -33 12 -8 3 -27 6 -41 7 -26 3 -243 94
-224 95 6 0 4 4 -4 9 -11 7 -9 20 12 73 34 84 51 194 44 288 -6 91 -13 109
-42 116 -47 12 -65 -3 -66 -54 -2 -47 -2 -47 -9 13 -8 58 -22 212 -24 248 0 9
-3 17 -7 17 -6 0 -21 94 -39 250 -5 47 -13 110 -16 140 -4 30 -7 63 -8 73 0 9
-1 17 -2 17 -1 0 -17 -6 -35 -14 -23 -9 -40 -11 -51 -5 -13 7 -23 4 -36 -8
-10 -10 -25 -19 -32 -21 -7 -2 -33 -15 -57 -29 -40 -23 -48 -34 -44 -57 1 -5
-4 -4 -12 2 -11 10 -26 4 -73 -26 -32 -21 -68 -41 -78 -45 -16 -6 -17 -5 -6 8
7 8 8 15 3 15 -6 0 -8 11 -5 25 7 39 -18 114 -42 127 -12 6 -60 40 -109 75
-217 158 -297 211 -297 194z m867 -323 c-3 -7 -5 -2 -5 12 0 14 2 19 5 13 2
-7 2 -19 0 -25z m-222 -27 c3 -5 2 -12 -3 -15 -5 -3 -9 1 -9 9 0 17 3 19 12 6z
m-66 -52 c-23 -18 -36 -23 -51 -20 -5 0 -8 -3 -8 -9 0 -5 -5 -10 -11 -10 -8 0
-8 4 1 15 6 8 15 14 18 13 21 -2 32 3 26 14 -4 7 -3 8 4 4 7 -4 12 -3 12 2 0
5 7 9 16 9 12 0 10 -5 -7 -18z m-5097 -242 c-23 -23 -42 -46 -42 -50 0 -4 -11
-20 -25 -35 -23 -24 -30 -42 -26 -65 1 -5 -3 -6 -8 -3 -11 7 -23 -22 -14 -36
3 -7 1 -8 -5 -4 -16 9 -49 -60 -74 -152 -21 -83 -34 -342 -16 -342 5 0 6 -4 3
-10 -3 -5 0 -28 6 -50 8 -26 15 -36 20 -28 5 7 7 -1 7 -20 -1 -34 26 -80 101
-172 25 -30 33 -44 18 -31 -15 14 -27 21 -27 16 0 -5 -16 7 -36 26 -19 18 -37
33 -40 32 -2 -2 -4 0 -5 5 0 4 -10 17 -22 30 -12 13 -21 24 -19 25 2 1 -10 31
-27 67 -49 106 -62 170 -60 313 1 129 17 222 52 297 8 19 18 45 22 56 7 26 32
54 62 71 24 14 38 6 22 -14 -6 -7 -9 -13 -5 -13 4 0 0 -11 -9 -23 -8 -13 -22
-48 -29 -78 -8 -30 -18 -63 -21 -74 -4 -11 10 11 30 49 45 84 132 204 170 234
44 35 43 26 -3 -21z m5352 -56 c20 -29 48 -91 62 -137 25 -84 44 -115 44 -73
0 47 9 10 18 -76 5 -50 6 -112 2 -140 l-7 -50 -3 60 c-1 33 -6 85 -10 115 -7
42 -8 26 -5 -65 1 -66 0 -142 -5 -170 -6 -41 -8 -28 -11 75 l-3 125 -7 -90
c-6 -87 -6 -86 -4 25 3 121 -9 204 -29 193 -6 -3 -8 -3 -4 1 3 4 0 24 -8 43
-9 19 -13 38 -10 41 3 3 6 -1 6 -8 0 -7 3 -11 6 -8 3 3 -2 23 -10 43 -9 21
-18 49 -21 63 -7 39 -17 41 -11 2 6 -35 6 -35 -8 -10 -9 15 -11 29 -6 34 6 6
1 24 -12 45 -29 50 -8 27 36 -38z m85 -46 c8 -42 11 -78 7 -82 -3 -3 -6 5 -6
19 0 14 -4 38 -9 54 -17 52 -22 84 -13 84 4 0 14 -34 21 -75z m-69 -60 c0 -5
-5 -3 -10 5 -5 8 -10 20 -10 25 0 6 5 3 10 -5 5 -8 10 -19 10 -25z m-195 3 c5
4 5 2 2 -4 -4 -7 4 -22 17 -35 35 -37 72 -108 86 -167 15 -64 5 -216 -14 -205
-6 4 -4 -2 4 -12 11 -14 11 -17 1 -11 -11 7 -13 0 -9 -32 2 -22 -1 -38 -5 -35
-5 3 -6 -4 -2 -16 4 -12 2 -21 -4 -21 -6 0 -11 -11 -11 -25 0 -14 -4 -25 -10
-25 -5 0 -10 -6 -10 -14 0 -17 -62 -127 -68 -121 -3 3 1 11 8 20 7 8 9 15 6
15 -4 0 -2 9 4 20 6 11 13 35 15 53 2 17 10 68 19 112 28 143 18 258 -34 416
-34 102 -35 105 -17 90 8 -6 18 -7 22 -3z m-215 -38 c0 -5 -5 -10 -11 -10 -5
0 -7 5 -4 10 3 6 8 10 11 10 2 0 4 -4 4 -10z m497 -22 c-3 -8 -6 -5 -6 6 -1
11 2 17 5 13 3 -3 4 -12 1 -19z m-374 -68 c-3 -11 -9 -17 -14 -15 -10 7 -1 35
11 35 5 0 6 -9 3 -20z m-5583 -105 l-7 -50 -2 46 c0 25 2 49 6 52 10 11 11 5
3 -48z m2713 -122 c-7 -2 -21 -2 -30 0 -10 3 -4 5 12 5 17 0 24 -2 18 -5z
m-298 -116 c8 -20 13 -37 10 -37 -7 0 -35 57 -35 71 0 18 7 8 25 -34z m1331
-42 c-9 -14 -18 -39 -19 -54 -1 -16 -6 -27 -11 -24 -4 3 -5 -5 -1 -17 5 -15 4
-20 -4 -16 -7 4 -9 1 -5 -8 3 -8 -2 -49 -11 -90 -9 -41 -14 -79 -11 -84 3 -6
3 -24 0 -42 -5 -23 -9 -28 -16 -18 -6 8 -7 4 -3 -12 10 -41 -101 -451 -200
-740 -67 -196 -72 -208 -98 -247 -54 -80 -44 -38 89 387 42 135 90 297 106
360 44 171 99 422 95 433 -2 6 -9 -16 -16 -47 -18 -79 -56 -187 -64 -180 -4 4
-5 -3 -2 -14 5 -27 -5 -63 -16 -57 -9 6 -25 -48 -58 -195 -12 -52 -30 -129
-42 -170 -11 -41 -49 -187 -84 -323 -34 -136 -66 -251 -70 -255 -3 -4 -97 -8
-208 -10 -208 -4 -277 5 -277 33 0 8 -9 15 -19 15 -13 0 -26 15 -41 44 -33 69
-135 369 -189 559 -62 216 -184 685 -185 714 -1 11 -4 19 -7 17 -3 -2 -11 8
-18 22 -16 35 -13 44 4 14 14 -24 14 -25 15 -3 0 20 3 21 24 13 13 -5 27 -6
30 -3 10 10 37 -20 31 -34 -3 -9 0 -13 7 -10 7 2 12 9 11 15 -2 6 4 9 12 6 8
-4 15 -1 15 6 0 7 7 10 15 6 8 -3 15 0 16 7 0 8 2 8 5 1 3 -6 20 -9 40 -7 27
3 34 1 28 -9 -5 -9 -2 -8 10 1 14 12 19 12 26 2 5 -9 10 -10 14 -3 3 6 20 10
36 10 18 -1 27 -5 23 -12 -4 -6 0 -5 9 2 13 10 17 10 22 -3 5 -13 45 -15 293
-15 158 0 356 -5 438 -10 176 -11 216 -3 249 46 11 18 23 31 25 29 2 -3 -4
-16 -13 -30z m2191 -7 c-3 -8 -6 -5 -6 6 -1 11 2 17 5 13 3 -3 4 -12 1 -19z
m-3000 -14 c-3 -3 -12 -4 -19 -1 -8 3 -5 6 6 6 11 1 17 -2 13 -5z m-767 -54
c-8 -5 -19 -10 -25 -10 -5 0 -3 5 5 10 8 5 20 10 25 10 6 0 3 -5 -5 -10z
m-306 -9 c3 -4 -3 -16 -14 -26 -19 -18 -20 -17 -20 8 0 26 22 38 34 18z m2506
-45 c0 -20 -16 -36 -37 -36 -14 0 -22 4 -18 10 4 6 11 8 16 4 5 -3 9 -2 8 3
-3 17 1 23 16 23 8 0 15 -2 15 -4z m-72 -23 c-5 -25 -28 -28 -28 -4 0 12 6 21
16 21 9 0 14 -7 12 -17z m1222 -16 c0 -5 -4 -5 -10 -2 -5 3 -10 14 -10 23 0
15 2 15 10 2 5 -8 10 -19 10 -23z m-5160 -12 c0 -5 -5 -3 -10 5 -5 8 -10 20
-10 25 0 6 5 3 10 -5 5 -8 10 -19 10 -25z m1311 18 c13 -16 12 -17 -3 -4 -10
7 -18 15 -18 17 0 8 8 3 21 -13z m3249 -9 c0 -8 -5 -14 -11 -14 -5 0 -7 5 -4
10 3 6 1 10 -4 10 -6 0 -11 4 -11 10 0 5 7 7 15 4 8 -4 15 -12 15 -20z m40
-15 c0 -4 -7 -6 -15 -3 -8 4 -15 10 -15 15 0 4 7 6 15 3 8 -4 15 -10 15 -15z
m-4784 -13 c0 -14 -5 -21 -9 -17 -4 4 -5 15 -1 24 9 24 12 21 10 -7z m4120
-23 l-5 -38 12 32 c13 34 35 61 23 29 -34 -96 -195 -765 -290 -1211 -31 -143
-74 -327 -97 -410 -23 -82 -45 -166 -49 -185 -14 -66 -53 -185 -58 -172 -2 7
3 36 13 64 9 27 14 52 12 54 -5 5 -29 -75 -51 -170 -9 -38 -35 -106 -58 -150
-23 -45 -52 -103 -65 -129 -14 -27 -39 -117 -57 -200 -90 -413 -194 -767 -225
-767 -5 0 -22 7 -37 15 l-29 15 32 0 c17 0 33 -6 35 -12 9 -27 49 135 79 317
17 105 53 327 80 495 63 381 96 537 166 765 31 99 58 188 60 197 3 10 10 15
16 11 6 -3 7 -1 3 5 -4 7 34 150 84 319 50 170 116 391 146 493 62 209 179
568 201 614 14 30 14 30 8 4 -14 -75 -14 -79 3 -31 18 49 38 83 49 83 3 0 3
-17 -1 -37z m1565 10 c-12 -20 -14 -14 -5 12 4 9 9 14 11 11 3 -2 0 -13 -6
-23z m-4108 -42 c3 -18 2 -30 -2 -25 -5 5 -11 27 -15 49 -4 26 -3 35 3 25 5
-8 11 -30 14 -49z m-189 -30 c22 -42 23 -49 8 -46 -11 1 -16 10 -15 24 2 12
-1 20 -6 17 -9 -6 -21 16 -21 40 0 23 7 16 34 -35z m-34 -20 c5 -19 5 -29 -1
-26 -5 4 -9 16 -9 28 0 18 -2 19 -10 7 -11 -17 -13 -9 -4 15 8 20 12 16 24
-24z m4071 16 c-10 -9 -11 -8 -5 6 3 10 9 15 12 12 3 -3 0 -11 -7 -18z m-4282
-108 c-6 -16 -11 -40 -11 -54 0 -14 -4 -22 -9 -20 -4 3 -10 -4 -14 -15 -4 -11
-17 -32 -31 -47 -32 -34 -30 -59 2 -35 6 4 -41 -44 -103 -105 -62 -62 -119
-113 -127 -113 -7 0 -19 -7 -26 -15 -18 -21 11 -31 42 -14 13 7 25 14 28 14
18 2 59 39 53 49 -3 6 0 5 8 -3 12 -11 11 -15 -5 -25 -41 -25 -66 -48 -61 -56
7 -12 -54 -3 -69 9 -9 7 -16 7 -24 -1 -18 -18 -14 -27 8 -21 11 3 26 0 33 -6
8 -6 18 -7 22 -3 5 4 5 1 1 -6 -5 -8 -13 -9 -24 -3 -9 5 -26 5 -39 0 -15 -5
-23 -5 -23 2 0 6 -4 8 -9 4 -5 -3 -12 -1 -16 4 -4 7 -15 7 -30 1 -33 -12 -32
3 0 18 17 8 25 8 25 1 0 -12 75 40 129 89 l36 34 -35 -23 c-19 -12 -45 -31
-58 -42 -25 -23 -86 -47 -117 -46 -17 0 -17 2 5 11 109 48 153 74 210 122 36
31 70 54 76 52 12 -4 64 43 64 57 0 4 -9 3 -20 -3 -17 -9 -17 -6 6 27 25 38
104 195 104 209 0 4 -14 -13 -32 -36 -17 -24 -74 -87 -127 -140 -153 -152
-281 -206 -465 -198 -141 6 -238 59 -381 209 l-70 74 80 -76 c151 -143 242
-190 379 -197 135 -6 242 26 354 108 24 17 41 34 39 37 -3 3 -21 -7 -40 -21
-19 -14 -38 -26 -42 -26 -5 0 13 15 40 34 94 67 263 246 267 282 1 10 3 -1 5
-25 3 -24 -1 -57 -8 -72z m461 50 c8 13 19 -19 92 -259 86 -283 120 -423 193
-790 31 -157 70 -332 86 -389 28 -101 30 -126 8 -104 -15 15 -70 175 -65 189
2 6 -1 17 -7 24 -9 10 -9 11 2 5 9 -5 8 0 -4 18 -9 14 -17 39 -17 56 -1 17 -4
28 -8 26 -4 -2 -6 6 -5 18 1 12 -3 28 -9 36 -9 12 -8 13 3 6 11 -6 12 -5 5 6
-4 8 -10 19 -11 24 -1 6 -7 30 -13 55 -14 56 -22 89 -25 115 -2 11 -4 20 -5
20 -2 0 -11 90 -13 141 -1 29 -5 50 -9 47 -4 -2 -11 14 -14 36 -4 24 -11 38
-17 34 -5 -3 -7 -1 -3 5 3 6 1 23 -5 39 -6 15 -12 48 -14 73 -2 25 -12 74 -24
109 -11 36 -17 69 -14 74 3 6 1 7 -5 3 -7 -4 -12 -1 -12 9 0 16 -24 97 -60
205 -24 74 -34 120 -20 100 8 -12 10 -11 10 7 0 16 -4 21 -15 17 -9 -4 -15 0
-15 9 0 9 -2 21 -3 29 -2 7 -2 9 1 4 2 -4 8 -3 12 3z m-343 -36 c-3 -10 -5 -4
-5 12 0 17 2 24 5 18 2 -7 2 -21 0 -30z m-1162 -13 c10 -11 14 -20 9 -20 -5 0
-15 9 -22 20 -7 11 -11 20 -9 20 2 0 12 -9 22 -20z m3821 -3 c-5 -30 -18 -57
-27 -57 -5 0 -9 5 -9 10 0 6 5 10 10 10 6 0 10 5 10 11 0 5 -4 7 -10 4 -14 -9
-13 18 2 33 13 13 27 7 24 -11z m-109 -14 c-10 -9 14 -34 27 -27 6 3 3 -1 -6
-9 -24 -19 -23 -30 2 -17 16 8 18 8 14 -4 -3 -8 -1 -17 5 -21 7 -4 11 4 11 21
0 26 1 27 20 9 19 -17 18 -41 -1 -30 -9 6 -12 -5 -10 -35 0 -10 -1 -11 -5 -2
-3 6 -11 9 -16 6 -7 -4 -8 -2 -4 4 12 20 -3 33 -24 20 -18 -11 -18 -15 -5 -35
17 -25 4 -41 -15 -18 -7 8 -17 12 -24 8 -6 -4 -5 0 2 9 7 9 15 41 16 70 4 59
3 58 13 58 3 0 3 -3 0 -7z m-2425 -140 c-2 -7 -9 -10 -15 -6 -5 3 -8 2 -5 -3
3 -5 0 -15 -8 -22 -12 -11 -14 -9 -14 10 0 13 3 33 6 45 5 20 7 20 23 5 10
-10 16 -23 13 -29z m26 5 c-1 -7 2 -24 6 -37 6 -17 3 -28 -9 -40 -10 -9 -15
-11 -11 -4 3 6 2 14 -4 18 -5 3 -10 12 -10 18 0 7 7 3 15 -7 8 -11 15 -15 15
-9 0 6 -6 16 -14 22 -17 14 -31 -2 -20 -21 13 -20 11 -45 -2 -45 -7 0 -15 6
-18 14 -3 7 -1 13 5 13 6 0 8 7 5 16 -3 9 4 28 16 44 26 33 30 35 26 18z
m-154 -31 c2 -37 -11 -34 -16 3 -3 18 0 29 5 27 6 -2 11 -15 11 -30z m2613 20
c0 -8 -6 -14 -14 -14 -9 0 -10 4 -2 14 6 7 12 13 14 13 1 0 2 -6 2 -13z m1846
-17 c-10 -17 -35 -47 -57 -68 l-40 -37 41 46 c22 25 46 56 52 68 7 11 14 21
17 21 3 0 -3 -14 -13 -30z m-4483 -21 c0 -9 -7 -22 -15 -29 -11 -9 -15 -9 -15
-1 0 9 -5 9 -20 1 -11 -6 -18 -16 -14 -22 4 -6 9 -7 13 0 4 6 12 4 21 -6 13
-14 12 -15 -2 -10 -10 4 -23 -1 -34 -13 -15 -17 -7 -29 10 -12 4 4 18 9 31 10
29 4 32 -12 9 -45 -10 -14 -14 -32 -10 -48 4 -14 2 -24 -4 -24 -5 0 -9 -15 -9
-32 1 -22 3 -26 6 -13 3 11 9 24 14 30 5 5 9 22 9 39 0 44 11 24 14 -26 2 -27
-3 -50 -12 -60 -13 -16 -13 -18 1 -18 9 0 21 8 26 18 6 9 11 12 11 5 0 -6 -5
-15 -10 -18 -6 -4 -8 -10 -5 -15 3 -4 -2 -13 -9 -19 -11 -9 -16 -9 -22 1 -5 8
-11 4 -19 -14 -11 -27 -11 -27 -24 -7 -10 17 -10 20 1 14 10 -6 11 -5 1 6 -16
16 -17 75 -2 84 6 4 8 14 5 22 -3 8 -2 11 3 8 5 -3 13 -1 16 5 4 6 1 9 -6 8
-6 -2 -14 3 -17 11 -3 8 0 11 7 7 6 -4 11 -1 11 8 0 14 -23 16 -36 3 -14 -14
-41 -7 -39 11 2 34 16 45 31 25 7 -10 14 -13 14 -8 0 6 5 3 11 -5 7 -10 9 -11
7 -2 -2 8 -7 13 -12 12 -16 -3 -24 23 -15 47 8 21 7 22 -10 11 -11 -6 -17 -17
-14 -23 4 -13 -47 -61 -84 -78 -13 -6 -23 -14 -23 -19 0 -16 22 -7 53 22 33
30 50 33 26 3 -9 -10 -9 -14 -2 -10 8 5 15 -1 19 -19 l7 -27 14 27 c18 35 23
33 19 -9 -3 -25 -17 -49 -45 -80 -24 -26 -39 -50 -35 -57 4 -7 3 -8 -4 -4 -7
4 -25 -7 -42 -26 -17 -18 -30 -27 -30 -21 0 6 13 23 30 36 19 17 29 34 27 48
-1 12 4 23 11 25 7 1 8 0 2 -3 -5 -2 -10 -9 -10 -15 0 -7 5 -6 14 1 15 12 16
28 3 47 -3 6 2 19 13 29 20 19 26 35 12 35 -4 0 -38 -25 -75 -56 -37 -30 -67
-50 -67 -42 0 10 -3 9 -10 -2 -5 -8 -10 -11 -10 -6 0 5 7 18 17 28 18 20 4 25
-15 6 -7 -7 -12 -8 -12 -2 0 5 25 29 56 54 30 25 74 62 97 84 42 39 42 39 5
12 -21 -15 -35 -21 -33 -13 3 7 18 20 33 29 15 9 39 28 54 42 15 14 31 26 36
26 5 0 15 14 22 31 10 22 15 27 21 17 5 -7 9 -20 9 -29z m72 -9 c-2 -22 -9
-40 -14 -40 -6 0 -8 10 -4 23 3 12 6 30 6 40 0 9 3 17 8 17 4 0 6 -18 4 -40z
m2779 9 c-5 -13 -10 -19 -10 -12 -1 15 10 45 15 40 3 -2 0 -15 -5 -28z m-281
-56 c-11 -17 -11 -17 -6 0 3 10 7 33 8 50 l1 32 4 -32 c2 -18 -1 -41 -7 -50z
m-2695 27 c-16 -16 -30 -28 -33 -26 -6 6 40 56 52 56 5 0 -3 -13 -19 -30z
m345 21 c0 -6 -4 -12 -8 -15 -5 -3 -9 1 -9 9 0 8 4 15 9 15 4 0 8 -4 8 -9z
m-631 -25 c-10 -9 -69 -36 -69 -32 0 7 52 35 64 36 5 0 7 -2 5 -4z m518 -18
c-3 -8 -6 -5 -6 6 -1 11 2 17 5 13 3 -3 4 -12 1 -19z m92 -9 c-14 -28 -26 -31
-24 -6 3 26 1 24 19 24 11 0 12 -5 5 -18z m43 -2 c-7 -8 -9 -17 -5 -20 3 -4 1
-7 -5 -7 -7 0 -12 2 -12 5 0 10 24 44 29 40 2 -3 -1 -11 -7 -18z m-412 -15 c0
-4 -9 -13 -20 -20 -19 -12 -20 -11 -8 8 13 20 28 27 28 12z m-380 -12 c-8 -5
-19 -10 -25 -10 -5 0 -3 5 5 10 8 5 20 10 25 10 6 0 3 -5 -5 -10z m837 -12
c-3 -8 -6 -5 -6 6 -1 11 2 17 5 13 3 -3 4 -12 1 -19z m4058 -28 c-44 -38 -154
-118 -185 -135 -28 -15 4 11 87 69 45 32 92 69 104 82 12 13 26 24 31 24 5 0
-11 -18 -37 -40z m-4183 8 c-7 -7 -12 -8 -12 -2 0 14 12 26 19 19 2 -3 -1 -11
-7 -17z m94 9 c10 -9 12 -77 3 -83 -9 -5 -39 24 -39 39 0 6 6 3 13 -6 11 -15
12 -14 12 12 0 22 -3 27 -12 19 -9 -7 -11 -4 -10 10 1 19 19 24 33 9z m51 -9
c-3 -8 -6 -5 -6 6 -1 11 2 17 5 13 3 -3 4 -12 1 -19z m-521 -25 c-1 -1 -12 0
-25 4 -15 4 -19 8 -10 13 10 7 42 -10 35 -17z m3021 5 c-3 -8 -6 -5 -6 6 -1
11 2 17 5 13 3 -3 4 -12 1 -19z m-2754 -111 c-8 -27 -9 -21 -10 43 -1 72 0 73
10 32 6 -27 7 -54 0 -75z m154 93 c-1 -22 -17 -28 -17 -7 0 12 9 27 16 27 2 0
2 -9 1 -20z m-447 6 c0 -3 -4 -8 -10 -11 -5 -3 -10 -1 -10 4 0 6 5 11 10 11 6
0 10 -2 10 -4z m3037 -28 c-3 -8 -6 -5 -6 6 -1 11 2 17 5 13 3 -3 4 -12 1 -19z
m-2504 -20 c-8 -14 -9 -18 -12 -45 -2 -16 -3 -15 -11 2 -5 13 -3 26 8 38 18
20 27 23 15 5z m-189 -38 c10 -13 9 -13 -8 0 -18 14 -19 13 -13 -3 4 -11 3
-16 -3 -12 -12 7 -13 38 -3 49 4 4 9 1 12 -6 2 -7 9 -20 15 -28z m-674 0 c-8
-5 -28 -9 -45 -9 l-30 1 30 8 c17 4 37 8 45 9 13 1 13 0 0 -9z m420 -16 c0 -3
-4 -3 -9 0 -4 3 -19 -6 -31 -19 -13 -14 -28 -25 -34 -25 -6 0 -2 7 9 16 11 8
21 20 21 27 1 7 2 16 3 20 1 8 41 -10 41 -19z m452 -6 c-8 -8 -9 -4 -5 13 4
13 8 18 11 10 2 -7 -1 -18 -6 -23z m159 20 c0 -7 3 -22 6 -33 8 -32 4 -87 -9
-102 -8 -11 -7 -12 5 -8 8 4 18 18 22 33 l8 27 8 -28 c4 -16 10 -74 12 -129 3
-63 10 -103 17 -108 15 -10 24 -106 11 -114 -6 -4 -8 -13 -5 -20 5 -14 -10
-29 -34 -32 -10 -2 -10 3 2 21 11 17 13 26 4 31 -7 5 -8 3 -3 -6 5 -8 4 -11
-3 -7 -5 4 -8 17 -4 29 3 14 1 19 -6 14 -7 -4 -9 1 -5 16 7 31 4 83 -8 108 -1
3 -3 10 -4 15 -2 6 -4 12 -5 15 -8 23 -7 67 3 79 10 12 9 13 -2 7 -10 -7 -12
-4 -7 12 4 13 1 22 -9 26 -8 3 -15 15 -15 26 0 12 5 18 10 15 6 -3 10 1 10 10
0 9 -4 14 -9 11 -4 -3 -7 6 -5 19 1 14 -1 27 -6 30 -10 6 0 55 11 55 5 0 9 -6
10 -12z m2316 -10 c-3 -8 -6 -5 -6 6 -1 11 2 17 5 13 3 -3 4 -12 1 -19z
m-2604 -5 c-7 -2 -9 -11 -6 -20 4 -11 2 -14 -5 -9 -7 4 -12 13 -12 21 0 14 21
26 30 17 3 -2 0 -7 -7 -9z m-509 -28 c-14 -19 -28 -35 -29 -35 -2 0 -12 -3
-22 -6 -16 -5 -17 -5 -1 6 10 6 15 17 11 27 -5 12 -2 15 9 10 9 -3 23 2 34 14
28 31 27 22 -2 -16z m464 0 c1 -16 -3 -25 -13 -25 -8 0 -15 -5 -15 -11 0 -5 4
-8 9 -4 5 3 13 0 17 -6 4 -8 3 -9 -4 -5 -7 4 -12 3 -12 -3 0 -6 15 -14 33 -19
l32 -8 -24 -13 c-19 -10 -25 -10 -31 -1 -5 7 -19 11 -34 8 -14 -3 -23 -2 -21
3 3 4 -1 10 -7 13 -9 4 -8 5 2 5 34 -3 42 1 36 17 -4 10 1 25 10 35 10 11 14
19 10 19 -4 0 -4 5 -1 10 9 14 10 13 13 -15z m-753 5 c13 -6 15 -9 5 -9 -8 0
-22 4 -30 9 -18 12 -2 12 25 0z m238 -14 c4 -10 1 -13 -8 -9 -8 3 -12 9 -9 14
7 12 11 11 17 -5z m97 -10 c0 -2 -7 -9 -15 -16 -13 -11 -14 -10 -9 4 5 14 24
23 24 12z m485 -38 c-5 -28 -2 -36 19 -52 26 -19 35 -59 16 -71 -6 -4 -8 -11
-4 -16 3 -5 -4 -26 -15 -45 -21 -35 -21 -35 -1 -77 17 -37 19 -39 21 -17 l1
25 7 -25 c12 -40 -5 -35 -56 15 -45 45 -48 53 -56 135 -2 15 5 30 16 39 10 7
16 19 13 27 -3 8 0 13 6 11 13 -2 29 61 18 68 -5 3 -11 -1 -13 -7 -3 -8 -6 -6
-6 5 -1 11 6 17 19 17 18 0 20 -4 15 -32z m3904 28 c-2 -2 -29 -18 -59 -36
-30 -18 -71 -41 -90 -53 -46 -27 -28 -10 38 36 28 20 59 37 66 37 8 0 18 5 21
10 3 6 11 10 17 10 6 0 9 -2 7 -4z m-4318 -29 c-10 -9 -11 -8 -5 6 3 10 9 15
12 12 3 -3 0 -11 -7 -18z m119 -52 c-13 -14 -29 -21 -41 -18 -17 5 -15 9 18
38 29 25 39 29 41 18 2 -8 -6 -25 -18 -38z m2470 45 c0 -5 -5 -10 -11 -10 -5
0 -7 5 -4 10 3 6 8 10 11 10 2 0 4 -4 4 -10z m-2264 -57 c-10 -10 -19 5 -10
18 6 11 8 11 12 0 2 -7 1 -15 -2 -18z m-175 -16 c-10 -9 -11 -8 -5 6 3 10 9
15 12 12 3 -3 0 -11 -7 -18z m163 -9 c-4 -6 -10 -5 -15 3 -14 22 -10 33 6 19
8 -7 12 -17 9 -22z m360 -67 c-2 -2 -4 2 -4 10 0 11 -2 11 -10 -1 -8 -13 -10
-12 -10 3 0 10 -4 16 -9 13 -13 -8 0 38 13 46 7 5 13 -6 17 -30 4 -20 5 -39 3
-41z m-462 34 c15 -14 29 -24 30 -23 6 4 58 -35 58 -44 0 -5 -5 -6 -12 -2 -7
5 -8 3 -3 -5 14 -24 25 4 15 39 -12 43 -12 50 0 50 5 0 6 -7 3 -17 -4 -10 -2
-14 5 -9 6 3 14 1 18 -5 4 -7 3 -9 -3 -6 -7 4 -10 -10 -9 -37 1 -31 5 -42 14
-38 7 2 12 1 10 -4 -1 -5 3 -19 10 -30 6 -12 8 -25 4 -29 -4 -5 -1 -5 6 -1 6
4 19 1 27 -8 18 -17 20 -30 3 -20 -6 4 -8 3 -5 -3 4 -6 18 -9 33 -7 14 1 23 0
20 -4 -4 -3 5 -18 20 -33 34 -35 13 -49 -21 -15 -14 15 -30 26 -34 26 -5 0
-23 16 -40 35 -17 20 -31 33 -31 30 0 -3 -28 18 -63 47 -34 29 -78 66 -97 81
-22 17 -26 23 -12 17 13 -6 52 -36 88 -66 35 -30 64 -51 64 -46 0 12 -103 106
-113 104 -5 -2 -5 3 -1 9 4 7 -1 18 -11 26 -11 7 -15 13 -9 13 5 0 21 -11 36
-25z m278 -51 c0 -12 7 -27 15 -34 8 -7 13 -15 11 -19 -3 -4 0 -13 5 -21 6
-10 8 3 5 40 -4 37 -2 48 4 35 5 -11 9 -38 10 -60 1 -30 3 -35 9 -20 6 15 9
12 14 -19 8 -49 -2 -66 -19 -35 -12 21 -13 22 -14 4 0 -18 -1 -18 -16 3 -8 12
-12 28 -8 35 5 8 4 9 -4 2 -5 -5 -12 -19 -15 -30 -3 -11 -4 3 -2 32 3 30 -1
69 -10 94 -19 52 -18 59 0 35 8 -11 15 -30 15 -42z m104 -48 c-3 -57 -5 -63
-14 -41 -5 11 -9 37 -9 58 -1 30 2 35 12 26 6 -6 11 -26 11 -43z m87 41 c-1
-12 -15 -9 -19 4 -3 6 1 10 8 8 6 -3 11 -8 11 -12z m-44 -51 c0 -19 -4 -33 -8
-30 -10 6 -8 64 2 64 4 0 7 -15 6 -34z m43 13 c0 8 2 12 4 10 2 -2 0 -22 -4
-44 -6 -30 -8 -33 -9 -13 0 14 -4 35 -7 45 -5 15 -4 15 5 3 9 -12 11 -13 11
-1z m2524 -44 c3 -8 1 -15 -4 -15 -6 0 -10 7 -10 15 0 8 2 15 4 15 2 0 6 -7
10 -15z m-2544 -86 c0 -41 -4 -68 -9 -64 -6 3 -6 -6 -1 -25 5 -16 6 -30 3 -30
-3 0 2 -10 13 -22 16 -17 16 -20 3 -15 -9 3 -21 1 -26 -4 -7 -7 -12 -5 -16 5
-3 8 -3 18 2 20 4 3 5 26 1 52 -5 34 -4 47 6 51 8 3 14 15 13 27 0 21 0 21 -9
-1 -5 -13 -12 -23 -15 -23 -4 0 -1 34 5 50 1 3 1 15 0 28 -1 14 4 22 14 22 13
0 16 -13 16 -71z m2247 39 c-3 -8 -6 -5 -6 6 -1 11 2 17 5 13 3 -3 4 -12 1
-19z m-2416 -40 c8 -16 8 -19 -2 -16 -6 2 -16 14 -20 27 -11 27 6 19 22 -11z
m116 -20 c-3 -7 -5 -2 -5 12 0 14 2 19 5 13 2 -7 2 -19 0 -25z m2290 10 c-3
-8 -6 -5 -6 6 -1 11 2 17 5 13 3 -3 4 -12 1 -19z m-2425 -43 c7 3 29 -8 48
-25 21 -19 26 -27 13 -20 -31 15 -40 12 -17 -5 10 -8 16 -15 11 -15 -9 0 -137
100 -137 107 0 3 15 -6 34 -21 19 -14 41 -24 48 -21z m93 15 c10 -11 16 -20
13 -20 -3 0 -13 9 -23 20 -10 11 -16 20 -13 20 3 0 13 -9 23 -20z m212 -2 c-3
-8 -6 -5 -6 6 -1 11 2 17 5 13 3 -3 4 -12 1 -19z m2110 -20 c-3 -8 -6 -5 -6 6
-1 11 2 17 5 13 3 -3 4 -12 1 -19z m-2185 -30 c4 -27 3 -29 -8 -14 -7 10 -10
24 -7 32 8 20 10 18 15 -18z m60 -24 c-10 -7 -13 -18 -8 -30 5 -14 4 -16 -4
-8 -15 15 -18 66 -5 80 7 9 13 6 21 -9 10 -17 9 -24 -4 -33z m2108 -55 c-7
-33 -15 -57 -18 -55 -2 3 2 35 9 72 7 36 15 61 17 54 2 -6 -1 -39 -8 -71z
m500 78 c0 -1 -30 -32 -67 -67 l-68 -65 65 68 c60 62 70 72 70 64z m-2769 -44
c13 -16 12 -17 -3 -4 -17 13 -22 21 -14 21 2 0 10 -8 17 -17z m188 -103 c1
-18 -2 -21 -8 -11 -5 8 -7 20 -4 28 3 8 -2 19 -11 26 -14 10 -15 16 -4 39 l13
28 7 -43 c3 -23 7 -53 7 -67z m-182 46 c19 -38 12 -32 -23 19 -14 22 -19 33
-10 25 10 -7 24 -27 33 -44z m87 -2 c3 -8 2 -12 -4 -9 -6 3 -10 10 -10 16 0
14 7 11 14 -7z m-24 -14 c0 -5 -2 -10 -4 -10 -3 0 -8 5 -11 10 -3 6 -1 10 4
10 6 0 11 -4 11 -10z m163 -25 c-3 -9 -8 -14 -10 -11 -3 3 -2 9 2 15 9 16 15
13 8 -4z m2020 -25 c3 -11 1 -18 -4 -14 -5 3 -9 12 -9 20 0 20 7 17 13 -6z
m-2010 -15 c4 -8 3 -16 -1 -19 -4 -3 -9 4 -9 15 -2 23 3 25 10 4z m2313 3 c4
4 2 -1 -5 -10 -15 -20 -31 -15 -31 9 0 12 3 13 13 4 8 -6 18 -7 23 -3z m64
-21 c0 -2 -19 -21 -42 -42 l-43 -40 40 43 c36 39 45 47 45 39z m-2630 -52 c19
-19 32 -35 29 -35 -3 0 -20 16 -39 35 -19 19 -32 35 -29 35 3 0 20 -16 39 -35z
m85 -15 c21 -22 37 -40 34 -40 -3 0 -23 18 -44 40 -21 22 -37 40 -34 40 3 0
23 -18 44 -40z m2892 -26 c-3 -3 -12 -4 -19 -1 -8 3 -5 6 6 6 11 1 17 -2 13
-5z m-2826 -41 c13 -16 12 -17 -3 -4 -17 13 -22 21 -14 21 2 0 10 -8 17 -17z
m2954 7 c13 -5 14 -9 5 -9 -8 0 -24 4 -35 9 -13 5 -14 9 -5 9 8 0 24 -4 35 -9z
m70 -20 c13 -5 14 -9 5 -9 -8 0 -24 4 -35 9 -13 5 -14 9 -5 9 8 0 24 -4 35 -9z
m-715 -23 c0 -2 -10 -12 -22 -23 l-23 -19 19 23 c18 21 26 27 26 19z m-2165
-97 c44 -44 77 -80 75 -80 -3 0 -41 36 -85 80 -44 44 -77 80 -75 80 3 0 41
-36 85 -80z m2073 -7 c-20 -21 -47 -56 -60 -78 -26 -44 -88 -192 -88 -212 0
-7 -6 -13 -12 -13 -16 0 -47 20 -32 20 5 0 20 21 32 48 42 89 89 165 136 218
26 30 50 54 54 54 3 0 -10 -17 -30 -37z m1122 4 c0 -2 -12 -14 -27 -28 l-28
-24 24 28 c23 25 31 32 31 24z m-1264 -353 c18 -15 18 -15 -2 -5 -20 10 -23 6
-42 -62 -12 -40 -27 -102 -33 -139 -13 -72 -22 -80 -58 -50 l-22 17 34 100
c19 55 40 112 47 128 15 31 45 36 76 11z m275 -141 c13 -16 12 -17 -3 -4 -10
7 -18 15 -18 17 0 8 8 3 21 -13z m-501 -80 c-11 -17 -11 -17 -6 0 3 10 6 24 7
30 0 9 2 9 5 0 3 -7 0 -20 -6 -30z m-1480 -83 c4 0 10 3 13 8 2 4 2 1 1 -5 -2
-7 3 -13 10 -13 12 0 36 -40 36 -60 0 -10 -19 -8 -46 8 -12 6 -24 8 -28 5 -3
-3 -6 -2 -6 3 0 6 5 15 12 22 9 9 8 12 -5 12 -12 0 -16 6 -13 23 3 12 6 31 7
42 1 11 4 5 6 -12 2 -18 8 -33 13 -33z m1540 -10 c0 -5 -7 -7 -15 -4 -8 4 -15
8 -15 10 0 2 7 4 15 4 8 0 15 -4 15 -10z m-1650 -55 c-7 -8 -18 -15 -24 -15
-6 0 -2 7 8 15 25 19 32 19 16 0z m1604 -34 c4 -5 3 -11 -1 -13 -5 -1 -45
-113 -90 -248 -120 -356 -152 -499 -239 -1058 -15 -95 -29 -171 -31 -168 -10
9 19 446 34 511 8 39 16 84 18 100 4 55 125 438 206 651 43 116 79 216 79 222
0 14 16 16 24 3z m175 -107 c14 -12 -19 -1 -35 12 -18 14 -18 14 6 3 14 -6 27
-13 29 -15z m108 1 c-29 -26 -61 -31 -87 -15 -10 7 -4 8 20 4 27 -5 41 -1 60
15 35 29 41 25 7 -4z m-606 -802 c-12 -20 -14 -14 -5 12 4 9 9 14 11 11 3 -2
0 -13 -6 -23z m-144 -538 c-1 -372 -10 -786 -15 -775 -7 13 -13 1195 -6 1218
17 62 23 -65 21 -443z m755 365 c-18 -17 -29 -30 -25 -30 5 0 -1 -7 -11 -15
-11 -8 -16 -15 -12 -15 4 0 -22 -32 -58 -71 -36 -39 -66 -80 -66 -90 0 -11 -4
-19 -8 -19 -24 0 -62 -305 -55 -440 3 -47 0 -110 -5 -140 -29 -172 -115 -576
-123 -578 -5 -2 -6 -8 -3 -14 3 -5 1 -53 -5 -106 -6 -53 -13 -125 -15 -159 -2
-34 -7 -68 -11 -75 -4 -7 2 -2 13 11 16 20 21 46 26 135 10 168 16 214 38 296
20 76 37 114 23 50 -4 -19 -9 -51 -11 -70 -1 -19 -5 -57 -8 -84 -8 -66 2 -53
19 25 7 35 14 54 14 42 1 -13 -10 -76 -23 -140 -13 -65 -27 -136 -31 -158 -15
-91 -27 -135 -36 -130 -5 4 -6 -1 -3 -9 7 -18 -23 -79 -36 -71 -6 4 -7 22 -1
43 3 8 0 12 -6 10 -5 -2 -7 -6 -6 -9 1 -4 -6 -14 -17 -24 -19 -17 -19 -17 -15
6 2 13 9 51 15 84 34 200 62 343 71 360 5 11 11 40 13 65 6 69 18 130 25 126
3 -2 7 17 8 43 1 25 11 82 23 126 12 44 23 100 25 125 2 25 4 45 5 45 3 0 7
44 13 135 4 61 3 84 -3 65 -5 -19 -7 15 -4 95 6 148 8 167 30 245 9 33 19 71
21 85 3 14 17 41 31 60 40 54 154 170 167 170 7 0 18 7 25 15 7 8 15 15 19 15
3 0 -9 -14 -27 -30z m-1275 -377 c-2 -16 -4 -3 -4 27 0 30 2 43 4 28 2 -16 2
-40 0 -55z m620 -90 c-3 -10 -5 -2 -5 17 0 19 2 27 5 18 2 -10 2 -26 0 -35z
m450 5 c-3 -8 -6 -5 -6 6 -1 11 2 17 5 13 3 -3 4 -12 1 -19z m-10 -120 c-3 -8
-6 -5 -6 6 -1 11 2 17 5 13 3 -3 4 -12 1 -19z m-1100 -145 c-3 -10 -5 -2 -5
17 0 19 2 27 5 18 2 -10 2 -26 0 -35z m-20 5 c-3 -7 -5 -2 -5 12 0 14 2 19 5
13 2 -7 2 -19 0 -25z m20 -170 c-2 -24 -4 -7 -4 37 0 44 2 63 4 43 2 -21 2
-57 0 -80z m1320 -44 c-3 -3 -12 -4 -19 -1 -8 3 -5 6 6 6 11 1 17 -2 13 -5z
m-250 -131 c-3 -10 -5 -4 -5 12 0 17 2 24 5 18 2 -7 2 -21 0 -30z m-22 -163
l-14 -95 5 75 c6 92 17 162 21 135 2 -11 -3 -63 -12 -115z m-508 -17 c-2 -16
-4 -5 -4 22 0 28 2 40 4 28 2 -13 2 -35 0 -50z m23 -139 c0 -2 -9 -4 -20 -4
-11 0 -20 4 -20 9 0 5 9 7 20 4 11 -3 20 -7 20 -9z m-43 -36 c-3 -8 -6 -5 -6
6 -1 11 2 17 5 13 3 -3 4 -12 1 -19z m-36 -91 c-10 -9 -11 -8 -5 6 3 10 9 15
12 12 3 -3 0 -11 -7 -18z m-11 -21 c0 -2 -8 -10 -17 -17 -16 -13 -17 -12 -4 4
13 16 21 21 21 13z m-156 -127 c-3 -5 -10 -7 -15 -3 -5 3 -7 10 -3 15 3 5 10
7 15 3 5 -3 7 -10 3 -15z m1433 -89 c1 -16 -1 -17 -12 -7 -11 10 -8 19 10 27
1 0 1 -9 2 -20z m-781 -42 c-7 -24 -15 -65 -21 -108 -6 -43 -11 -59 -18 -65
-4 -3 -5 -2 -2 1 2 4 -2 13 -10 20 -12 12 -12 20 -1 47 7 17 21 53 30 80 18
47 34 66 22 25z m-581 -98 c3 -5 1 -10 -4 -10 -6 0 -11 5 -11 10 0 6 2 10 4
10 3 0 8 -4 11 -10z m1002 -32 c-3 -8 -6 -5 -6 6 -1 11 2 17 5 13 3 -3 4 -12
1 -19z m-1009 -734 c0 -17 -3 -22 -8 -13 -5 6 -6 18 -3 26 8 19 11 16 11 -13z
m1675 19 c3 -5 -1 -14 -8 -20 -11 -10 -13 -9 -12 7 1 20 12 26 20 13z"/>
<path d="M7976 6897 c3 -10 9 -15 12 -12 3 3 0 11 -7 18 -10 9 -11 8 -5 -6z"/>
<path d="M7852 6660 c0 -19 2 -27 5 -17 2 9 2 25 0 35 -3 9 -5 1 -5 -18z"/>
<path d="M4733 6413 c15 -2 39 -2 55 0 15 2 2 4 -28 4 -30 0 -43 -2 -27 -4z"/>
<path d="M4662 6225 c6 -7 979 -7 986 0 3 3 -219 5 -493 5 -274 0 -496 -2
-493 -5z"/>
<path d="M5552 5970 c0 -14 2 -19 5 -12 2 6 2 18 0 25 -3 6 -5 1 -5 -13z"/>
<path d="M4733 5935 c5 -13 805 -17 812 -4 4 5 -166 10 -405 11 -270 2 -409 0
-407 -7z"/>
<path d="M6301 6114 c0 -11 3 -14 6 -6 3 7 2 16 -1 19 -3 4 -6 -2 -5 -13z"/>
<path d="M6241 5914 c-7 -25 -10 -48 -8 -51 3 -2 10 17 16 43 7 25 10 48 8 51
-3 2 -10 -17 -16 -43z"/>
<path d="M6211 5804 c0 -11 3 -14 6 -6 3 7 2 16 -1 19 -3 4 -6 -2 -5 -13z"/>
<path d="M6061 5304 c0 -11 3 -14 6 -6 3 7 2 16 -1 19 -3 4 -6 -2 -5 -13z"/>
<path d="M6051 5264 c0 -11 3 -14 6 -6 3 7 2 16 -1 19 -3 4 -6 -2 -5 -13z"/>
<path d="M6041 5224 c0 -11 3 -14 6 -6 3 7 2 16 -1 19 -3 4 -6 -2 -5 -13z"/>
<path d="M6031 5184 c0 -11 3 -14 6 -6 3 7 2 16 -1 19 -3 4 -6 -2 -5 -13z"/>
<path d="M5992 5043 c-128 -493 -189 -749 -179 -759 2 -2 20 69 40 158 20 90
69 286 107 437 39 150 69 275 67 277 -2 2 -18 -49 -35 -113z"/>
<path d="M6002 4910 c0 -14 2 -19 5 -12 2 6 2 18 0 25 -3 6 -5 1 -5 -13z"/>
<path d="M5992 4860 c0 -14 2 -19 5 -12 2 6 2 18 0 25 -3 6 -5 1 -5 -13z"/>
<path d="M5976 4794 c-4 -20 -5 -38 -3 -40 3 -3 8 11 11 32 4 20 5 38 3 40 -3
3 -8 -11 -11 -32z"/>
<path d="M5962 4720 c0 -14 2 -19 5 -12 2 6 2 18 0 25 -3 6 -5 1 -5 -13z"/>
<path d="M5952 4670 c0 -14 2 -19 5 -12 2 6 2 18 0 25 -3 6 -5 1 -5 -13z"/>
<path d="M5936 4604 c-4 -20 -5 -38 -3 -40 3 -3 8 11 11 32 4 20 5 38 3 40 -3
3 -8 -11 -11 -32z"/>
<path d="M5922 4530 c0 -14 2 -19 5 -12 2 6 2 18 0 25 -3 6 -5 1 -5 -13z"/>
<path d="M5882 4480 c0 -14 2 -19 5 -12 2 6 2 18 0 25 -3 6 -5 1 -5 -13z"/>
<path d="M5836 4267 c-21 -100 -49 -209 -62 -242 -37 -90 -38 -94 -9 -45 14
24 35 76 45 115 22 79 73 346 67 351 -2 2 -20 -78 -41 -179z"/>
<path d="M5796 4234 c-4 -20 -5 -38 -3 -40 3 -3 8 11 11 32 4 20 5 38 3 40 -3
3 -8 -11 -11 -32z"/>
<path d="M5781 4164 c0 -11 3 -14 6 -6 3 7 2 16 -1 19 -3 4 -6 -2 -5 -13z"/>
<path d="M5771 4124 c0 -11 3 -14 6 -6 3 7 2 16 -1 19 -3 4 -6 -2 -5 -13z"/>
<path d="M3210 5924 c-19 -19 -30 -34 -24 -34 5 0 25 16 44 35 43 45 26 44
-20 -1z"/>
<path d="M3190 5770 c-19 -16 -30 -30 -24 -30 5 0 23 14 39 30 36 38 30 38
-15 0z"/>
<path d="M3881 6014 c-1 -12 6 -37 15 -55 15 -34 14 -26 -6 46 -6 23 -8 25 -9
9z"/>
<path d="M4026 5477 c3 -10 9 -15 12 -12 3 3 0 11 -7 18 -10 9 -11 8 -5 -6z"/>
<path d="M4107 5139 c4 -13 8 -18 11 -10 2 7 -1 18 -6 23 -8 8 -9 4 -5 -13z"/>
<path d="M4122 5090 c0 -14 4 -38 8 -55 7 -27 8 -27 8 -5 0 14 -4 39 -8 55 -7
27 -8 27 -8 5z"/>
<path d="M3460 5850 c0 -5 5 -10 11 -10 5 0 7 5 4 10 -3 6 -8 10 -11 10 -2 0
-4 -4 -4 -10z"/>
<path d="M3437 5763 c-3 -5 1 -17 9 -28 14 -18 14 -18 14 2 0 23 -15 39 -23
26z"/>
<path d="M3250 5648 c-16 -13 -21 -22 -13 -25 17 -6 28 -4 28 5 0 4 4 13 9 20
13 22 3 22 -24 0z"/>
<path d="M3470 5620 c0 -11 2 -20 4 -20 2 0 6 9 9 20 3 11 1 20 -4 20 -5 0 -9
-9 -9 -20z"/>
<path d="M3430 5578 c0 -4 7 -8 15 -8 8 0 15 4 15 8 0 5 -7 9 -15 9 -8 0 -15
-4 -15 -9z"/>
<path d="M3480 5559 c0 -5 5 -7 10 -4 6 3 10 8 10 11 0 2 -4 4 -10 4 -5 0 -10
-5 -10 -11z"/>
<path d="M4012 5240 c0 -14 2 -19 5 -12 2 6 2 18 0 25 -3 6 -5 1 -5 -13z"/>
<path d="M4014 5185 c3 -21 16 -31 16 -12 0 9 -4 18 -9 21 -5 4 -8 -1 -7 -9z"/>
<path d="M3664 5442 c-29 -19 -47 -103 -25 -117 5 -3 19 8 31 25 12 17 26 27
32 24 6 -4 8 -3 5 3 -4 6 -3 23 2 40 7 25 6 29 -13 31 -11 1 -26 -2 -32 -6z
m11 -42 c3 -5 1 -10 -4 -10 -6 0 -11 5 -11 10 0 6 2 10 4 10 3 0 8 -4 11 -10z"/>
<path d="M3660 5314 c0 -8 5 -12 10 -9 6 3 10 10 10 16 0 5 -4 9 -10 9 -5 0
-10 -7 -10 -16z"/>
<path d="M3586 5248 c3 -5 10 -6 15 -3 13 9 11 12 -6 12 -8 0 -12 -4 -9 -9z"/>
<path d="M3740 5106 c0 -2 7 -9 15 -16 9 -7 15 -8 15 -2 0 5 -7 12 -15 16 -8
3 -15 4 -15 2z"/>
<path d="M4398 3913 c7 -3 16 -2 19 1 4 3 -2 6 -13 5 -11 0 -14 -3 -6 -6z"/>
<path d="M6049 2653 l-34 -38 38 34 c34 33 42 41 34 41 -2 0 -19 -17 -38 -37z"/>
<path d="M5765 840 c3 -5 8 -10 11 -10 2 0 4 5 4 10 0 6 -5 10 -11 10 -5 0 -7
-4 -4 -10z"/>
<path d="M7990 7575 c-14 -8 -20 -14 -15 -14 6 0 21 6 35 14 14 8 21 14 15 14
-5 0 -21 -6 -35 -14z"/>
<path d="M2113 7521 c-87 -22 -178 -105 -166 -152 4 -14 2 -20 -4 -16 -7 5 -9
-1 -6 -15 27 -118 61 -183 135 -255 l44 -43 2 28 c1 15 8 43 16 62 15 37 57
189 76 275 6 28 18 63 27 78 8 16 13 30 11 32 -9 9 -106 13 -135 6z m2 -35
c-16 -13 -32 -22 -34 -20 -5 5 42 43 54 44 6 0 -3 -11 -20 -24z m-65 -76 c-11
-22 -23 -40 -25 -40 -3 0 4 18 15 40 11 22 23 40 25 40 3 0 -4 -18 -15 -40z
m-23 -162 c-3 -7 -5 -2 -5 12 0 14 2 19 5 13 2 -7 2 -19 0 -25z m-37 -13 c0
-5 -5 -3 -10 5 -5 8 -10 20 -10 25 0 6 5 3 10 -5 5 -8 10 -19 10 -25z m112
-12 c-1 -4 7 -17 16 -28 17 -20 17 -20 -4 -2 -11 9 -21 24 -21 32 0 8 2 13 5
11 2 -2 4 -8 4 -13z m2 -119 c3 -8 2 -12 -4 -9 -6 3 -10 10 -10 16 0 14 7 11
14 -7z"/>
<path d="M7986 7521 c-4 -5 -2 -20 3 -33 5 -13 21 -93 36 -178 14 -85 28 -157
30 -161 2 -3 7 -21 10 -40 13 -77 12 -76 82 -8 76 75 138 164 147 214 16 82
-41 169 -132 199 -49 17 -167 22 -176 7z m166 -38 c9 -10 18 -29 22 -43 5 -20
3 -19 -10 7 -9 17 -26 36 -38 41 -15 8 -17 11 -5 11 9 1 23 -7 31 -16z m115
-85 c-3 -8 -6 -5 -6 6 -1 11 2 17 5 13 3 -3 4 -12 1 -19z m-80 -20 c-3 -8 -6
-5 -6 6 -1 11 2 17 5 13 3 -3 4 -12 1 -19z m64 -21 c-10 -9 -11 -8 -5 6 3 10
9 15 12 12 3 -3 0 -11 -7 -18z m-131 -220 c0 -2 -10 -12 -22 -23 l-23 -19 19
23 c18 21 26 27 26 19z"/>
<path d="M2245 7457 c-36 -126 -67 -290 -73 -382 -3 -58 -8 -90 -12 -75 -3 14
-7 -8 -8 -52 -2 -86 12 -104 23 -30 8 57 44 144 56 136 5 -3 9 2 9 11 0 36
111 180 140 180 8 1 14 6 13 12 -1 6 5 17 15 25 15 12 16 11 3 -4 -17 -22 -3
-23 27 -2 12 8 30 14 40 13 32 -3 53 1 48 9 -6 10 111 8 142 -2 35 -11 26 -2
-30 34 -29 19 -55 37 -58 40 -3 3 -47 29 -98 58 -60 34 -100 51 -112 47 -10
-3 -21 -1 -25 4 -4 7 1 8 12 4 14 -4 15 -3 7 6 -6 7 -32 14 -57 16 l-47 5 -15
-53z m295 -72 c17 -9 30 -18 30 -21 0 -4 -59 23 -69 32 -10 9 13 3 39 -11z
m-280 -205 c0 -5 -2 -10 -4 -10 -3 0 -8 5 -11 10 -3 6 -1 10 4 10 6 0 11 -4
11 -10z m-73 -102 c-2 -13 -4 -5 -4 17 -1 22 1 32 4 23 2 -10 2 -28 0 -40z"/>
<path d="M2425 7256 c-22 -13 -42 -23 -46 -20 -8 4 -45 -35 -41 -45 1 -3 -4
-6 -10 -6 -7 -1 -12 -6 -10 -13 1 -7 -5 -15 -13 -18 -8 -3 -12 -10 -9 -15 3
-5 -2 -12 -10 -15 -9 -3 -13 -10 -10 -15 3 -5 23 14 45 42 23 28 68 68 101 90
66 42 68 54 3 15z"/>
<path d="M2815 7040 c3 -5 8 -10 11 -10 2 0 4 5 4 10 0 6 -5 10 -11 10 -5 0
-7 -4 -4 -10z"/>
<path d="M2910 7026 c0 -2 8 -10 18 -17 15 -13 16 -12 3 4 -13 16 -21 21 -21
13z"/>
<path d="M2206 6993 c-6 -14 -5 -15 5 -6 7 7 10 15 7 18 -3 3 -9 -2 -12 -12z"/>
<path d="M2197 6963 c-4 -3 -7 -15 -7 -26 0 -25 9 -17 15 12 4 22 2 25 -8 14z"/>
<path d="M4985 6889 c-33 -4 -98 -13 -145 -19 -47 -6 -137 -18 -200 -27 -63
-8 -124 -16 -136 -17 -11 -1 -25 -5 -30 -9 -6 -3 -40 -11 -76 -17 -36 -5 -85
-17 -109 -25 -24 -9 -49 -13 -57 -10 -7 2 -10 0 -7 -5 3 -6 0 -10 -9 -10 -8 0
-22 -3 -32 -7 -11 -4 -15 -2 -11 4 4 6 -3 8 -18 5 -14 -2 -25 -8 -25 -13 0 -5
-16 -9 -35 -9 -19 0 -43 -4 -53 -9 -9 -6 -48 -20 -85 -31 -38 -12 -66 -24 -64
-27 3 -2 42 5 87 17 46 11 85 18 88 15 3 -3 0 -5 -6 -5 -7 0 -12 -5 -12 -11 0
-6 9 -8 23 -4 20 5 20 5 -3 -9 -14 -9 -20 -15 -15 -16 6 0 22 8 35 17 14 10
26 17 28 15 8 -7 32 0 27 8 -3 6 4 10 15 10 12 0 59 11 104 24 44 13 101 29
126 35 70 18 288 48 365 50 38 2 74 5 79 9 6 3 37 6 71 7 33 1 112 4 177 6 64
2 112 1 106 -2 -5 -4 30 -7 79 -8 92 -1 245 -15 348 -31 33 -5 85 -12 115 -16
30 -3 73 -14 96 -24 23 -10 60 -19 83 -18 23 0 45 -2 48 -6 4 -3 -2 -6 -13 -7
-17 0 116 -40 186 -55 14 -3 32 -8 40 -11 8 -4 19 -5 23 -4 5 1 54 -12 110
-28 177 -51 264 -71 304 -70 27 1 31 3 13 6 -14 3 -32 10 -40 17 -8 7 -31 19
-50 26 -53 20 -57 29 -8 18 24 -5 55 -12 69 -14 16 -4 30 0 38 10 11 13 9 15
-20 15 -19 -1 -68 11 -109 25 -70 26 -64 26 35 5 22 -4 56 -8 75 -8 l35 1 -30
8 c-16 5 -59 16 -95 24 -36 9 -150 38 -255 65 -297 77 -460 108 -600 116 -94
4 -151 10 -273 26 -85 11 -320 10 -407 -2z"/>
<path d="M7503 6884 c0 -6 13 -11 28 -11 15 0 25 5 23 11 -2 6 -15 11 -27 11
-13 0 -24 -5 -24 -11z"/>
<path d="M7556 6842 c-3 -5 1 -9 9 -9 8 0 12 4 9 9 -3 4 -7 8 -9 8 -2 0 -6 -4
-9 -8z"/>
<path d="M4468 6723 c7 -3 16 -2 19 1 4 3 -2 6 -13 5 -11 0 -14 -3 -6 -6z"/>
<path d="M6780 6685 c-14 -8 -20 -14 -14 -15 5 0 19 7 30 15 24 18 16 19 -16
0z"/>
<path d="M2801 6664 c0 -11 3 -14 6 -6 3 7 2 16 -1 19 -3 4 -6 -2 -5 -13z"/>
<path d="M4010 6670 c-23 -7 -23 -8 -3 -9 12 -1 25 4 28 9 3 6 5 10 3 9 -2 -1
-14 -5 -28 -9z"/>
<path d="M2142 6615 c0 -16 2 -22 5 -12 2 9 2 23 0 30 -3 6 -5 -1 -5 -18z"/>
<path d="M4246 6572 c-3 -5 1 -9 9 -9 8 0 12 4 9 9 -3 4 -7 8 -9 8 -2 0 -6 -4
-9 -8z"/>
<path d="M3270 6385 c-11 -13 -10 -14 4 -9 9 3 16 10 16 15 0 13 -6 11 -20 -6z"/>
<path d="M3836 6335 c4 -8 8 -15 10 -15 2 0 4 7 4 15 0 8 -4 15 -10 15 -5 0
-7 -7 -4 -15z"/>
<path d="M3710 6272 c6 -13 14 -21 18 -18 3 4 -2 14 -12 24 -18 16 -18 16 -6
-6z"/>
<path d="M2550 6260 c0 -5 5 -10 11 -10 5 0 7 5 4 10 -3 6 -8 10 -11 10 -2 0
-4 -4 -4 -10z"/>
<path d="M1691 6185 c-1 -26 32 -147 67 -245 63 -180 290 -532 418 -651 54
-49 251 -212 356 -293 52 -40 92 -64 99 -60 7 4 9 3 6 -3 -4 -6 19 -28 51 -50
77 -54 92 -61 59 -30 -15 15 -31 27 -35 28 -4 1 -13 10 -20 21 -7 10 -17 16
-22 13 -4 -3 -10 1 -13 9 -3 8 -27 27 -54 42 -26 16 -50 31 -53 34 -3 3 -52
45 -110 95 -149 128 -253 233 -354 360 -200 252 -305 441 -371 670 -13 44 -24
71 -24 60z"/>
<path d="M3805 5940 c-9 -15 4 -50 20 -50 21 0 27 17 15 40 -12 22 -25 26 -35
10z"/>
<path d="M3823 5825 c0 -8 4 -12 9 -9 5 3 6 10 3 15 -9 13 -12 11 -12 -6z"/>
<path d="M3826 5782 c-3 -5 1 -9 9 -9 8 0 12 4 9 9 -3 4 -7 8 -9 8 -2 0 -6 -4
-9 -8z"/>
<path d="M3862 5740 c0 -14 2 -19 5 -12 2 6 2 18 0 25 -3 6 -5 1 -5 -13z"/>
<path d="M1856 5607 c3 -10 9 -15 12 -12 3 3 0 11 -7 18 -10 9 -11 8 -5 -6z"/>
<path d="M1884 5568 c-4 -7 -3 -8 4 -4 7 4 16 -2 22 -16 5 -13 18 -34 30 -48
20 -24 20 -23 -1 22 -23 49 -43 65 -55 46z"/>
<path d="M3859 5568 c0 -7 -2 -21 -4 -31 -2 -9 1 -15 6 -11 5 3 9 -9 9 -27 0
-39 6 -35 13 8 3 21 1 32 -6 30 -7 -1 -11 8 -9 21 2 12 1 22 -2 22 -3 0 -6 -6
-7 -12z"/>
<path d="M8209 5498 c-29 -40 -78 -99 -108 -131 -30 -32 -47 -55 -38 -51 12 4
17 2 15 -6 -2 -7 5 -14 14 -15 21 -4 83 36 83 53 0 7 13 29 30 50 23 29 16 25
-34 -20 -34 -32 -69 -58 -77 -58 -21 0 -18 7 22 48 37 37 105 124 137 175 33
51 10 27 -44 -45z"/>
<path d="M1976 5418 c3 -5 9 -7 12 -4 3 3 12 0 21 -6 13 -10 14 -10 4 2 -15
16 -46 23 -37 8z"/>
<path d="M2039 5296 c15 -16 29 -22 47 -18 24 4 23 6 -16 23 -54 24 -58 24
-31 -5z"/>
<path d="M8051 5222 c-52 -42 -117 -93 -145 -112 -28 -19 -51 -40 -51 -47 0
-6 -4 -15 -9 -20 -5 -5 -6 -3 -2 5 14 24 -7 11 -107 -66 -128 -98 -247 -178
-301 -203 -47 -21 -43 -23 19 -8 25 6 42 15 39 20 -3 5 0 9 7 9 23 0 244 131
272 161 15 16 31 27 36 25 5 -3 15 2 22 11 8 10 9 14 2 10 -6 -4 -14 -3 -17 1
-3 5 5 9 17 8 24 -2 180 111 172 124 -3 5 8 16 24 27 38 24 131 112 131 124 0
18 -16 8 -109 -69z m-51 -87 c0 -2 -10 -10 -22 -16 -21 -11 -22 -11 -9 4 13
16 31 23 31 12z m-60 -19 c0 -2 -17 -16 -37 -31 l-38 -26 35 30 c34 31 40 35
40 27z"/>
<path d="M5766 5273 c-6 -14 -5 -15 5 -6 7 7 10 15 7 18 -3 3 -9 -2 -12 -12z"/>
<path d="M8034 5268 l-19 -21 28 18 c28 18 33 25 19 25 -5 0 -17 -10 -28 -22z"/>
<path d="M8127 5228 c-31 -31 -31 -32 -2 -8 16 14 34 28 40 32 5 5 6 8 2 8 -4
0 -22 -15 -40 -32z"/>
<path d="M7969 5213 l-34 -38 38 34 c34 33 42 41 34 41 -2 0 -19 -17 -38 -37z"/>
<path d="M7989 5083 c-13 -16 -12 -17 4 -4 9 7 17 15 17 17 0 8 -8 3 -21 -13z"/>
<path d="M8211 4897 c-49 -125 -77 -190 -102 -235 -24 -44 -26 -50 -10 -40 11
6 19 14 19 17 -2 21 4 31 14 25 6 -4 8 -3 5 3 -4 6 -1 13 7 16 17 7 106 179
106 205 0 29 -29 36 -39 9z"/>
<path d="M1880 4900 c0 -16 47 -114 65 -135 16 -19 16 -19 9 15 -4 19 -6 47
-6 61 1 15 -8 36 -19 48 -20 22 -49 28 -49 11z"/>
<path d="M2780 4826 c0 -2 7 -7 16 -10 8 -3 12 -2 9 4 -6 10 -25 14 -25 6z"/>
<path d="M3048 4753 c7 -3 16 -2 19 1 4 3 -2 6 -13 5 -11 0 -14 -3 -6 -6z"/>
<path d="M7370 4750 c-9 -6 -10 -10 -3 -10 6 0 15 5 18 10 8 12 4 12 -15 0z"/>
<path d="M2988 4743 c6 -2 18 -2 25 0 6 3 1 5 -13 5 -14 0 -19 -2 -12 -5z"/>
<path d="M2781 4715 c37 -28 59 -32 59 -11 0 20 -15 28 -57 32 l-36 3 34 -24z"/>
<path d="M7680 4523 c-54 -9 -170 -59 -275 -118 -116 -65 -182 -102 -280 -155
-140 -76 -351 -226 -419 -299 -21 -22 -27 -34 -19 -42 7 -7 15 -2 27 16 9 14
21 23 27 19 6 -3 13 4 16 16 3 13 11 19 19 16 8 -3 14 -1 14 4 0 11 68 75 79
75 5 0 13 4 18 9 5 5 2 6 -6 1 -9 -5 -12 -4 -8 3 4 5 16 8 26 5 10 -3 22 0 25
6 4 6 2 11 -4 11 -6 0 -8 5 -4 11 4 8 12 3 20 -12 11 -20 13 -21 14 -6 0 10 5
15 10 12 6 -4 7 -11 4 -17 -4 -7 -2 -8 4 -4 7 4 12 14 12 22 0 15 16 19 24 6
3 -5 -8 -22 -25 -38 -16 -15 -27 -34 -25 -40 3 -7 0 -15 -7 -18 -7 -4 0 -4 16
-2 22 3 25 1 16 -10 -6 -8 -16 -11 -22 -7 -6 3 -7 1 -3 -5 4 -7 2 -12 -3 -12
-6 0 -11 -8 -11 -17 0 -13 9 -8 36 18 36 35 56 65 69 108 6 20 4 23 -9 18 -11
-5 -20 1 -28 18 -6 13 -15 22 -19 19 -5 -3 -9 0 -9 5 0 10 14 15 33 12 5 -1 6
3 2 9 -3 5 9 19 27 30 45 28 55 25 21 -6 -21 -19 -23 -24 -9 -19 19 6 19 5 1
-15 -33 -36 -6 -21 37 21 24 23 42 46 40 50 -1 5 5 9 13 9 8 0 14 5 13 12 -2
6 17 23 42 37 l45 25 -23 -28 c-12 -16 -22 -37 -22 -47 0 -13 -7 -19 -21 -19
-28 0 -61 -19 -54 -31 4 -5 1 -9 -5 -9 -6 0 -9 -4 -6 -9 3 -4 -3 -27 -14 -49
-24 -49 -24 -52 -5 -52 23 0 54 40 95 122 20 43 40 75 43 72 8 -8 29 35 23 45
-3 5 1 11 9 15 11 4 10 -6 -7 -47 -11 -29 -26 -72 -33 -97 -42 -143 -56 -184
-86 -244 -19 -37 -35 -63 -37 -57 -2 6 -7 9 -12 6 -4 -3 -52 -14 -105 -25 -66
-13 -123 -32 -179 -61 -65 -33 -76 -36 -56 -17 14 13 30 22 35 19 6 -3 4 2 -2
10 -10 12 -10 18 0 29 19 22 -22 -9 -60 -45 -18 -16 -34 -28 -36 -25 -2 3 -11
-1 -20 -9 -34 -27 -16 -2 33 48 34 34 50 59 50 77 0 14 -4 23 -10 19 -5 -3
-10 -3 -10 2 1 4 24 24 52 43 46 31 125 117 88 95 -8 -5 -21 -17 -28 -27 -7
-10 -17 -18 -21 -18 -12 0 -97 -84 -104 -104 -4 -10 -12 -14 -18 -10 -7 4 -9
3 -5 -4 3 -6 2 -13 -3 -17 -12 -7 -34 32 -26 45 3 6 4 10 1 10 -6 0 -36 -55
-36 -65 0 -3 7 -5 15 -5 8 0 15 5 15 12 0 9 3 9 11 1 8 -8 4 -26 -12 -63 -21
-49 -21 -54 -6 -65 15 -11 14 -13 -9 -23 -33 -16 -34 -15 -30 11 2 12 -1 28
-7 35 -7 9 -7 12 1 10 6 -2 20 14 30 35 19 34 19 37 2 37 -29 0 -87 -157 -115
-317 -19 -106 -17 -123 10 -93 19 21 19 21 -1 15 -10 -4 24 16 76 45 117 63
221 127 325 200 178 126 249 170 270 170 29 0 57 -32 49 -56 -6 -18 -6 -18 11
-3 23 23 6 55 -35 64 -60 13 -28 22 64 19 58 -3 97 0 101 6 4 6 10 8 15 5 5
-3 12 0 16 6 5 8 3 9 -7 4 -8 -5 0 5 18 21 74 71 361 560 340 581 -3 3 -38 0
-77 -7 -39 -7 -74 -9 -77 -6 -4 3 0 6 8 6 28 0 89 21 89 30 0 6 -3 9 -7 9 -5
-1 -19 -4 -33 -6z m-289 -356 c-10 -9 -11 -8 -5 6 3 10 9 15 12 12 3 -3 0 -11
-7 -18z m-31 -67 c-6 -11 -13 -20 -16 -20 -2 0 0 9 6 20 6 11 13 20 16 20 2 0
0 -9 -6 -20z m-30 -84 c0 -2 -8 -10 -17 -17 -16 -13 -17 -12 -4 4 13 16 21 21
21 13z m-715 -373 c-3 -16 -13 -35 -21 -44 -8 -9 -11 -19 -7 -24 5 -4 0 -5
-10 -2 -10 4 -20 7 -23 7 -7 0 18 55 33 72 24 26 36 22 28 -9z"/>
<path d="M8030 4510 c0 -21 -99 -152 -110 -145 -11 7 -70 -87 -70 -111 1 -25
51 32 124 141 67 101 80 125 66 125 -5 0 -10 -4 -10 -10z"/>
<path d="M7185 4457 c-33 -29 -76 -65 -95 -80 -19 -16 -8 -10 25 12 69 47 155
120 140 120 -5 0 -37 -24 -70 -52z"/>
<path d="M2390 4486 c0 -20 41 -60 84 -81 25 -13 33 -13 41 -3 16 20 65 9 92
-20 14 -15 20 -19 13 -9 -11 15 -11 20 0 30 9 9 11 9 6 0 -3 -6 -2 -14 3 -17
5 -3 12 1 15 10 4 9 13 14 22 10 8 -3 12 -2 9 4 -13 21 -14 51 -2 48 13 -4 18
-15 116 -215 33 -67 74 -143 91 -168 17 -25 29 -45 26 -45 -3 0 26 -30 65 -67
48 -47 69 -73 66 -85 -3 -10 -2 -18 2 -18 4 0 24 -16 45 -35 34 -30 166 -106
182 -104 3 0 9 -3 12 -7 4 -4 0 -3 -8 1 -13 8 -13 6 -2 -7 8 -9 20 -14 28 -11
17 6 67 -24 59 -37 -3 -5 12 -21 32 -37 21 -15 40 -31 43 -34 10 -13 107 -57
159 -73 30 -9 70 -25 89 -36 19 -12 37 -18 40 -15 6 6 -17 130 -30 160 -6 14
-7 8 -3 -18 8 -51 -2 -82 -21 -66 -8 6 -14 19 -14 28 0 13 -2 14 -9 2 -7 -10
-14 0 -25 39 -21 70 -20 73 9 66 52 -13 19 27 -51 63 -41 20 -42 20 -37 1 3
-11 9 -20 13 -20 5 0 16 -15 25 -32 21 -40 36 -100 24 -92 -5 3 -9 11 -9 17 0
14 -79 62 -96 59 -6 -1 -18 5 -25 15 -12 15 -12 16 1 9 8 -4 6 0 -4 8 -26 21
-37 20 -29 -1 5 -15 3 -15 -11 2 -10 11 -14 13 -10 5 6 -12 5 -13 -7 -2 -11
11 -12 14 -1 21 11 7 10 10 -3 15 -9 3 -22 3 -27 -1 -6 -3 -8 -1 -4 5 3 5 2
12 -4 14 -6 2 -12 14 -15 27 -6 30 -21 41 -60 41 -16 0 -57 7 -90 15 -85 20
-92 20 -69 -7 13 -14 3 -10 -28 12 -27 18 -48 36 -49 39 -4 34 -13 50 -43 78
-21 20 -36 28 -38 21 -7 -20 -90 101 -146 209 -57 112 -104 224 -97 231 3 3 5
1 5 -4 0 -5 10 -10 23 -11 12 0 -18 19 -68 43 -86 41 -127 56 -95 33 16 -11
-125 -5 -182 7 -22 5 -28 3 -28 -10z m265 -33 c-2 -10 -4 -20 -4 -22 -1 -3 -7
1 -13 7 -10 10 -10 15 2 22 19 12 19 13 15 -7z m361 -498 c16 -14 24 -25 18
-25 -6 0 -21 11 -34 25 -30 32 -21 32 16 0z"/>
<path d="M2750 4402 c1 -10 21 -42 50 -81 14 -18 25 -36 26 -39 1 -17 76 -163
81 -158 3 3 0 12 -6 20 -20 23 -40 113 -29 124 6 6 5 12 -3 17 -8 6 -10 4 -5
-6 4 -8 -4 0 -18 16 -14 17 -26 36 -26 43 0 6 -4 12 -8 12 -5 0 -15 11 -22 24
-12 24 -40 43 -40 28z"/>
<path d="M2823 4375 c0 -8 4 -12 9 -9 15 9 22 -28 7 -38 -11 -8 -11 -9 2 -5
12 4 25 -8 45 -38 29 -46 59 -69 50 -37 -3 9 -8 33 -11 53 -5 28 -15 40 -51
62 -52 32 -51 31 -51 12z"/>
<path d="M6769 4373 c-13 -16 -12 -17 4 -4 9 7 17 15 17 17 0 8 -8 3 -21 -13z"/>
<path d="M7065 4334 l-30 -26 35 23 c45 29 45 29 34 29 -5 0 -22 -12 -39 -26z"/>
<path d="M7004 4288 l-19 -23 23 19 c21 18 27 26 19 26 -2 0 -12 -10 -23 -22z"/>
<path d="M2981 4253 c7 -12 15 -20 18 -17 3 2 -3 12 -13 22 -17 16 -18 16 -5
-5z"/>
<path d="M3040 4266 c0 -2 16 -14 35 -26 21 -13 32 -26 28 -33 -3 -7 -3 -9 2
-5 4 4 24 1 44 -7 35 -14 35 -14 12 3 -36 25 -121 73 -121 68z"/>
<path d="M6935 4234 c-22 -19 -66 -53 -97 -75 -32 -22 -58 -42 -58 -45 0 -3
20 9 44 26 25 16 49 30 54 30 4 0 19 11 32 25 12 13 26 22 30 20 9 -6 33 22
36 41 3 18 6 19 -41 -22z m35 12 c0 -2 -8 -10 -17 -17 -16 -13 -17 -12 -4 4
13 16 21 21 21 13z"/>
<path d="M3022 4199 c12 -34 94 -129 111 -129 7 0 -3 13 -22 29 -20 16 -31 33
-27 40 4 6 12 8 19 4 14 -8 -27 50 -45 64 -7 5 -21 13 -30 16 -14 5 -15 2 -6
-24z"/>
<path d="M4351 4210 c0 -8 4 -22 9 -30 12 -18 12 -2 0 25 -6 13 -9 15 -9 5z"/>
<path d="M3125 4180 c3 -5 11 -10 16 -10 6 0 7 5 4 10 -3 6 -11 10 -16 10 -6
0 -7 -4 -4 -10z"/>
<path d="M3250 4129 c7 -12 18 -18 26 -15 7 3 13 0 11 -6 -1 -6 12 -17 29 -24
26 -11 31 -11 31 2 0 9 -22 26 -48 40 -59 29 -63 30 -49 3z"/>
<path d="M3184 4082 c38 -75 85 -105 82 -52 -2 35 -20 56 -68 81 l-39 20 25
-49z"/>
<path d="M3327 4014 c11 -16 24 -42 29 -57 5 -15 24 -38 43 -49 l33 -22 -7 25
c-19 62 -35 85 -75 108 l-43 23 20 -28z"/>
<path d="M6645 4030 c-3 -5 -2 -10 4 -10 5 0 13 5 16 10 3 6 2 10 -4 10 -5 0
-13 -4 -16 -10z"/>
<path d="M6888 4014 c-23 -13 -65 -59 -66 -74 -1 -3 -4 -13 -7 -22 -4 -9 -5
-24 -3 -33 7 -38 98 71 98 119 0 8 6 17 13 19 6 3 8 5 2 5 -5 0 -22 -7 -37
-14z"/>
<path d="M3415 3998 c1 -13 4 -21 6 -18 2 2 15 -3 28 -12 13 -9 30 -14 39 -11
11 5 13 3 7 -8 -5 -8 -4 -11 0 -6 18 16 13 38 -11 48 -33 12 -36 11 -29 -3 3
-7 -2 -3 -11 10 -9 12 -20 22 -24 22 -3 0 -6 -10 -5 -22z"/>
<path d="M6780 3925 c-7 -8 -8 -15 -2 -15 5 0 15 7 22 15 7 8 8 15 2 15 -5 0
-15 -7 -22 -15z"/>
<path d="M3581 3893 c7 -12 15 -20 18 -17 3 2 -3 12 -13 22 -17 16 -18 16 -5
-5z"/>
<path d="M3517 3861 c2 -10 25 -38 51 -62 29 -28 37 -34 24 -15 -12 16 -22 34
-22 40 0 14 -37 56 -49 56 -5 0 -7 -8 -4 -19z"/>
<path d="M3600 3851 c0 -6 4 -13 10 -16 6 -3 7 1 4 9 -7 18 -14 21 -14 7z"/>
<path d="M4410 3815 c0 -5 5 -17 10 -25 5 -8 10 -10 10 -5 0 6 -5 17 -10 25
-5 8 -10 11 -10 5z"/>
<path d="M3634 3768 c0 -16 4 -28 8 -28 3 0 11 -12 16 -27 6 -16 11 -21 11
-13 0 8 -8 33 -18 55 -17 36 -18 37 -17 13z"/>
<path d="M4436 3757 c3 -10 9 -15 12 -12 3 3 0 11 -7 18 -10 9 -11 8 -5 -6z"/>
<path d="M3648 3113 c7 -3 16 -2 19 1 4 3 -2 6 -13 5 -11 0 -14 -3 -6 -6z"/>
<path d="M6494 3087 c-101 -54 -216 -139 -203 -151 7 -8 17 -3 35 17 13 15 24
24 24 20 0 -4 8 1 18 13 32 38 118 94 187 121 17 6 23 12 15 12 -8 1 -42 -14
-76 -32z"/>
<path d="M6279 3003 c-13 -16 -12 -17 4 -4 9 7 17 15 17 17 0 8 -8 3 -21 -13z"/>
<path d="M4731 2964 c0 -11 3 -14 6 -6 3 7 2 16 -1 19 -3 4 -6 -2 -5 -13z"/>
<path d="M3899 2813 c-33 -17 -87 -60 -140 -113 -79 -78 -79 -79 -10 -14 109
102 191 144 242 126 22 -9 22 -9 -7 -16 -90 -21 -226 -128 -358 -282 -56 -65
-54 -63 40 27 54 53 120 110 145 127 61 41 141 72 182 71 18 0 26 -3 19 -6 -9
-3 -11 -19 -6 -55 5 -35 4 -49 -4 -44 -6 4 -5 -15 4 -51 7 -32 13 -64 14 -71
0 -7 4 -11 9 -8 5 3 14 -16 21 -42 39 -151 105 -376 164 -557 7 -22 19 -41 27
-41 8 -1 24 -2 37 -3 15 -1 22 -7 22 -21 0 -11 -5 -20 -11 -20 -5 0 -7 5 -3
11 4 7 -1 7 -16 -1 -13 -7 -20 -8 -16 -2 3 6 1 14 -5 18 -8 4 -9 3 -5 -4 4 -7
3 -12 -2 -12 -9 0 -11 -8 -14 -60 -1 -16 -6 -26 -11 -23 -6 4 -8 0 -4 -10 3
-10 2 -17 -4 -17 -6 0 -7 -5 -4 -10 3 -6 -3 -22 -14 -36 -12 -15 -21 -34 -21
-43 0 -29 -24 -71 -40 -68 -21 3 -39 -51 -20 -63 13 -8 9 -13 -10 -12 -3 0 -6
-20 -8 -45 -1 -24 -9 -57 -17 -72 -8 -16 -16 -39 -19 -52 -2 -13 -14 -46 -27
-74 -12 -27 -23 -63 -25 -80 -1 -16 -11 -51 -22 -77 -12 -25 -18 -56 -15 -67
6 -25 23 -28 23 -4 0 9 3 14 6 10 9 -8 -6 -48 -16 -42 -4 3 -6 -4 -3 -15 6
-23 -24 -110 -38 -110 -11 0 -12 14 -2 24 4 3 8 14 9 24 2 12 -2 10 -16 -8
-11 -14 -17 -32 -14 -42 3 -9 0 -19 -6 -23 -5 -3 -10 -11 -10 -17 0 -6 11 -1
25 12 35 33 31 19 -7 -24 -17 -20 -38 -36 -45 -36 -47 0 -273 176 -652 507
-134 118 -246 211 -249 209 -12 -13 40 -65 206 -210 168 -146 294 -250 477
-391 43 -33 96 -77 117 -98 22 -20 44 -35 49 -32 4 3 22 -1 39 -10 l31 -16 57
58 c32 32 63 70 69 85 7 15 46 143 88 285 84 285 124 397 192 542 62 132 64
140 47 218 -24 112 -35 203 -34 288 0 115 -20 306 -35 335 -8 14 -50 63 -96
110 -45 47 -98 102 -118 123 -34 36 -79 67 -99 67 -4 0 -33 -12 -63 -27z m118
-1857 c-21 -84 -38 -131 -49 -137 -15 -8 -15 -3 2 59 21 77 71 214 76 210 1
-2 -12 -61 -29 -132z"/>
<path d="M4751 2824 c0 -11 3 -14 6 -6 3 7 2 16 -1 19 -3 4 -6 -2 -5 -13z"/>
<path d="M6505 2610 c10 -11 20 -20 23 -20 3 0 -3 9 -13 20 -10 11 -20 20 -23
20 -3 0 3 -9 13 -20z"/>
<path d="M3639 2573 c-13 -16 -12 -17 4 -4 16 13 21 21 13 21 -2 0 -10 -8 -17
-17z"/>
<path d="M5676 2575 c4 -8 8 -15 10 -15 2 0 4 7 4 15 0 8 -4 15 -10 15 -5 0
-7 -7 -4 -15z"/>
<path d="M3590 2510 c-17 -22 -29 -40 -27 -40 3 0 20 18 37 40 17 22 29 40 27
40 -3 0 -20 -18 -37 -40z"/>
<path d="M6581 1114 c0 -11 3 -14 6 -6 3 7 2 16 -1 19 -3 4 -6 -2 -5 -13z"/>
<path d="M6570 1081 c0 -17 29 -20 42 -3 12 15 11 16 -4 3 -12 -9 -18 -10 -18
-2 0 6 -4 11 -10 11 -5 0 -10 -4 -10 -9z"/>
<path d="M5184 846 c-3 -9 -11 -13 -17 -9 -6 3 -7 1 -3 -6 6 -9 12 -9 24 1 10
7 18 13 20 14 2 1 -2 5 -7 9 -6 3 -14 -1 -17 -9z"/>
<path d="M5209 394 c-10 -13 -10 -17 1 -24 8 -5 19 -6 25 -2 6 4 3 8 -8 10 -9
2 -15 8 -11 13 3 5 10 7 15 4 5 -4 9 -1 9 4 0 16 -16 13 -31 -5z"/>
<path d="M5208 323 c6 -2 10 -9 6 -14 -3 -5 -1 -9 5 -9 17 0 21 18 5 24 -9 3
-19 6 -22 5 -4 0 -1 -3 6 -6z"/>
<path d="M5192 281 c-11 -7 -11 -9 0 -14 9 -3 15 1 15 9 0 8 -1 14 -1 14 -1 0
-7 -4 -14 -9z"/>
<path d="M6994 269 c-8 -14 14 -19 25 -6 8 10 7 14 -5 14 -8 0 -17 -4 -20 -8z"/>
<path d="M6913 80 c-1 -11 2 -22 6 -24 4 -3 7 4 6 14 -2 27 -10 33 -12 10z"/>
</g>
</svg>
